<svg width="510" height="510" viewBox="0 0 510 510" fill="none" xmlns="http://www.w3.org/2000/svg">
<g clip-path="url(#clip0_272_16)">
<path d="M350 260V171.566C362.577 175.887 375.762 178.605 389.278 179.583C394.823 179.981 399.577 175.806 399.973 170.331C400.372 164.823 396.23 160.034 390.721 159.636C320.224 154.533 265 95.102 265 24.333V10C265 4.477 260.522 0 255 0C249.477 0 245 4.477 245 10V24.333C245 95.102 189.776 154.533 119.278 159.636C113.769 160.034 109.627 164.824 110.026 170.331C110.422 175.811 115.181 179.981 120.721 179.583C134.238 178.605 147.422 175.887 159.999 171.566V260C159.999 265.522 164.476 270 169.999 270C175.522 270 179.999 265.522 179.999 260V163.079C214.101 145.689 241.205 115.876 254.999 79.315C268.783 115.851 295.874 145.677 329.999 163.079V260C329.999 265.522 334.477 270 339.999 270C345.521 270 350 265.522 350 260Z" fill="#978667"/>
<path d="M500 450H465V430H475C480.522 430 485 425.522 485 420C485 414.478 480.522 410 475 410H465V380C465 374.478 460.522 370 455 370C449.478 370 445 374.478 445 380V410H435C429.478 410 425 414.478 425 420C425 425.522 429.478 430 435 430H445V450H385V430H395C400.522 430 405 425.522 405 420C405 414.478 400.522 410 395 410H385V380C385 374.478 380.522 370 375 370C369.478 370 365 374.478 365 380V410H355C349.478 410 345 414.478 345 420C345 425.522 349.478 430 355 430H365V450H305V430H315C320.522 430 325 425.522 325 420C325 414.478 320.522 410 315 410H305V380C305 374.478 300.522 370 295 370C289.478 370 285 374.478 285 380V410H275C269.478 410 265 414.478 265 420C265 425.522 269.478 430 275 430H285V450H225V430H235C240.523 430 245 425.522 245 420C245 414.478 240.523 410 235 410H225V380C225 374.478 220.523 370 215 370C209.477 370 205 374.478 205 380V410H195C189.477 410 185 414.478 185 420C185 425.522 189.477 430 195 430H205V450H145V430H155C160.523 430 165 425.522 165 420C165 414.478 160.523 410 155 410H145V380C145 374.478 140.523 370 135 370C129.477 370 125 374.478 125 380V410H115C109.478 410 105 414.478 105 420C105 425.522 109.478 430 115 430H125V450H65V430H75C80.522 430 85 425.522 85 420C85 414.478 80.522 410 75 410H65V380C65 374.478 60.522 370 55 370C49.478 370 45 374.478 45 380V410H35C29.478 410 25 414.478 25 420C25 425.522 29.478 430 35 430H45V450H10C4.477 450 0 454.478 0 460V500C0 505.522 4.477 510 10 510H500C505.522 510 510 505.522 510 500V460C510 454.478 505.522 450 500 450ZM490 490H20V470H490V490ZM10 270H45V290H35C29.478 290 25 294.478 25 300C25 305.522 29.478 310 35 310H45V340C45 345.522 49.478 350 55 350C60.522 350 65 345.522 65 340V310H75C80.522 310 85 305.522 85 300C85 294.478 80.522 290 75 290H65V270C83.095 270 97.431 270 125 270V290H115C109.478 290 105 294.478 105 300C105 305.522 109.478 310 115 310H125V340C125 345.522 129.477 350 135 350C140.523 350 145 345.522 145 340V310H155C160.523 310 165 305.522 165 300C165 294.478 160.523 290 155 290H145V270H205V290H195C189.477 290 185 294.478 185 300C185 305.522 189.477 310 195 310H205V340C205 345.522 209.477 350 215 350C220.523 350 225 345.522 225 340V310H235C240.523 310 245 305.522 245 300C245 294.478 240.523 290 235 290H225V270H285V290H275C269.478 290 265 294.478 265 300C265 305.522 269.478 310 275 310H285V340C285 345.522 289.478 350 295 350C300.522 350 305 345.522 305 340V310H315C320.522 310 325 305.522 325 300C325 294.478 320.522 290 315 290H305V270H365V290H355C349.478 290 345 294.478 345 300C345 305.522 349.478 310 355 310H365V340C365 345.522 369.478 350 375 350C380.522 350 385 345.522 385 340V310H395C400.522 310 405 305.522 405 300C405 294.478 400.522 290 395 290H385V270C403.834 270 418.013 270 445 270V290H435C429.478 290 425 294.478 425 300C425 305.522 429.478 310 435 310H445V340C445 345.522 449.478 350 455 350C460.522 350 465 345.522 465 340V310H475C480.522 310 485 305.522 485 300C485 294.478 480.522 290 475 290H465V270H500C505.522 270 510 265.522 510 260C510 254.477 505.522 250 500 250H400V145C400 65.047 334.953 0 255 0C175.047 0 110 65.047 110 145V250H10C4.477 250 0 254.477 0 260C0 265.522 4.477 270 10 270ZM130 145C130 76.075 186.075 20 255 20C323.925 20 380 76.075 380 145V250H130V145Z" fill="#978667"/>
<path d="M55 330C38.458 330 25 343.458 25 360C25 376.542 38.458 390 55 390C71.542 390 85 376.542 85 360C85 343.458 71.542 330 55 330ZM55 370C49.486 370 45 365.514 45 360C45 354.486 49.486 350 55 350C60.514 350 65 354.486 65 360C65 365.514 60.514 370 55 370ZM135 330C118.458 330 105 343.458 105 360C105 376.542 118.458 390 135 390C151.542 390 165 376.542 165 360C165 343.458 151.542 330 135 330ZM135 370C129.486 370 125 365.514 125 360C125 354.486 129.486 350 135 350C140.514 350 145 354.486 145 360C145 365.514 140.514 370 135 370ZM215 330C198.458 330 185 343.458 185 360C185 376.542 198.458 390 215 390C231.542 390 245 376.542 245 360C245 343.458 231.542 330 215 330ZM215 370C209.486 370 205 365.514 205 360C205 354.486 209.486 350 215 350C220.514 350 225 354.486 225 360C225 365.514 220.514 370 215 370ZM295 330C278.458 330 265 343.458 265 360C265 376.542 278.458 390 295 390C311.542 390 325 376.542 325 360C325 343.458 311.542 330 295 330ZM295 370C289.486 370 285 365.514 285 360C285 354.486 289.486 350 295 350C300.514 350 305 354.486 305 360C305 365.514 300.514 370 295 370ZM375 330C358.458 330 345 343.458 345 360C345 376.542 358.458 390 375 390C391.542 390 405 376.542 405 360C405 343.458 391.542 330 375 330ZM375 370C369.486 370 365 365.514 365 360C365 354.486 369.486 350 375 350C380.514 350 385 354.486 385 360C385 365.514 380.514 370 375 370ZM455 330C438.458 330 425 343.458 425 360C425 376.542 438.458 390 455 390C471.542 390 485 376.542 485 360C485 343.458 471.542 330 455 330ZM455 370C449.486 370 445 365.514 445 360C445 354.486 449.486 350 455 350C460.514 350 465 354.486 465 360C465 365.514 460.514 370 455 370Z" fill="#978667"/>
</g>
<defs>
<clipPath id="clip0_272_16">
<rect width="510" height="510" fill="white"/>
</clipPath>
</defs>
</svg>
