<svg width="64" height="64" viewBox="0 0 64 64" fill="none" xmlns="http://www.w3.org/2000/svg">
<path d="M14.918 15.9251C14.449 16.1861 14.283 16.7771 14.545 17.2441L16.99 21.6151C17.166 21.9321 17.496 22.1111 17.836 22.1111C17.996 22.1111 18.158 22.0711 18.309 21.9871C18.776 21.7261 18.944 21.1341 18.682 20.6671L16.237 16.2961C15.975 15.8301 15.387 15.6631 14.918 15.9251ZM17.541 14.0081C17.117 14.3331 17.035 14.9411 17.359 15.3671L20.394 19.3491C20.585 19.5991 20.874 19.7301 21.167 19.7301C21.37 19.7301 21.577 19.6651 21.753 19.5321C22.179 19.2071 22.261 18.5991 21.937 18.1731L18.9 14.1911C18.576 13.7661 17.969 13.6831 17.541 14.0081ZM24.27 17.3861C24.508 17.3861 24.745 17.3001 24.932 17.1261C25.323 16.7611 25.344 16.1471 24.979 15.7551L21.565 12.0921C21.2 11.7001 20.585 11.6791 20.194 12.0441C19.801 12.4091 19.78 13.0231 20.145 13.4151L23.561 17.0781C23.752 17.2831 24.01 17.3861 24.27 17.3861ZM63.031 1.23608H0.971C0.438 1.23608 0 1.67308 0 2.20608C0 2.73908 0.438 3.17608 0.971 3.17608H34.619V5.63008H36.558V3.17608H38.788V5.63008H40.727V3.17608H42.957V5.63008H44.895V3.17608H47.125V5.63008H49.064V3.17608H51.304V5.63008H53.243V3.17608H55.143V5.63008H57.082V3.17608H63.027C63.56 3.17608 63.996 2.73908 63.996 2.20608C63.996 1.67308 63.564 1.23608 63.031 1.23608ZM36.762 48.3641C36.713 48.2091 36.694 48.0441 36.723 47.8891C36.693 48.0431 36.703 48.2081 36.762 48.3641ZM36.869 47.2101V7.56808H35.685H35.492H34.308V47.2101C34.308 47.9081 34.88 48.4901 35.587 48.4901C36.12 48.4901 36.577 48.1601 36.771 47.7051C36.83 47.5491 36.869 47.3841 36.869 47.2101Z" fill="#978667"/>
<path d="M32.3689 36.6689H6.94291V35.6999V34.7299V32.9139H9.28891C9.82391 32.9139 10.2579 32.4799 10.2579 31.9439C10.2579 31.4089 9.82391 30.9749 9.28891 30.9749H6.94291V14.7349C6.94291 14.7059 6.79791 12.1939 8.29091 10.5159C8.86291 9.8759 9.60891 9.4199 10.5309 9.1679C10.2199 10.8749 10.8319 12.8339 12.2869 14.2979C12.4799 14.4919 12.7229 14.5789 12.9749 14.5789C13.2269 14.5789 13.4689 14.4919 13.6639 14.2979L19.1129 8.8479C19.4919 8.4699 19.4919 7.8589 19.1129 7.4809C16.9119 5.2799 13.5949 5.0179 11.7149 6.8989C11.6759 6.9379 11.6369 6.9769 11.6079 7.0149C9.58991 7.1899 7.97991 7.9369 6.83591 9.2359C4.79091 11.5439 5.00391 14.7349 5.00391 14.8019V30.9749H2.72291C2.18791 30.9749 1.75391 31.4089 1.75391 31.9439C1.75391 32.4799 2.18791 32.9139 2.72291 32.9139H5.00391V34.7299V35.6999V36.6689H2.72491C2.28891 36.6689 1.93991 37.0179 1.93991 37.4549C1.93991 37.8819 2.29891 38.2409 2.72491 38.2409H32.3699L32.3689 36.6689ZM40.9119 47.7819C40.9319 47.7339 40.9509 47.6949 40.9709 47.6459C41.0199 47.5099 41.0469 47.3549 41.0469 47.2099V7.5679H39.8559H39.6599H38.8079V47.2099C38.8079 47.4719 38.7789 47.7139 38.7199 47.9569C38.7589 48.0149 38.7979 48.0629 38.8549 48.1219C39.0969 48.3649 39.4179 48.4999 39.7569 48.4999C40.2519 48.4999 40.6889 48.2179 40.9119 47.7819ZM45.1109 47.7049C45.1109 47.6949 45.1209 47.6849 45.1309 47.6659C45.1779 47.5299 45.2069 47.3649 45.2069 47.2099V7.5679H44.0249H43.8299H42.9859V47.2099C42.9859 47.4619 42.9589 47.7239 42.8899 47.9659C42.9289 48.0139 42.9659 48.0719 43.0149 48.1209C43.2669 48.3639 43.5869 48.4989 43.9269 48.4989C44.4409 48.4999 44.9159 48.1889 45.1109 47.7049ZM49.2809 47.7139C49.2909 47.6749 49.3079 47.6459 49.3179 47.6079C49.3669 47.4819 49.3859 47.3459 49.3859 47.2109V7.5679H48.1949H47.9999H47.1459V47.2099C47.1459 47.4619 47.1169 47.7139 47.0599 47.9569C47.0969 48.0149 47.1459 48.0729 47.1949 48.1219C47.4369 48.3649 47.7579 48.4999 48.0969 48.4999C48.6309 48.4999 49.0859 48.1699 49.2809 47.7139ZM52.1799 7.5679H51.3259V47.2099C51.3259 47.4719 51.2969 47.7139 51.2299 47.9569C51.2669 48.0149 51.3059 48.0629 51.3649 48.1219C51.5579 48.3069 51.7809 48.4229 52.0249 48.4709C52.0449 48.4709 52.0539 48.4809 52.0719 48.4809C52.0919 48.4809 52.1109 48.4909 52.1309 48.4809C52.1899 48.4909 52.2289 48.5009 52.2769 48.5009C52.7129 48.5009 53.1109 48.2779 53.3529 47.9089C53.3529 47.8989 53.3629 47.8899 53.3729 47.8799C53.4879 47.6759 53.5569 47.4529 53.5569 47.2109V7.5679H52.3729H52.1799ZM56.0199 7.5679H55.4969V47.2099C55.4969 47.5589 55.4379 47.8979 55.3329 48.2179C55.5559 48.4019 55.8269 48.4989 56.1179 48.4989C56.8249 48.4989 57.3969 47.9169 57.3969 47.2089V7.5679H56.2129H56.0199ZM13.8589 58.7409L12.8489 58.6979V61.1159C12.8489 62.0249 13.5829 62.7639 14.4879 62.7639H15.0309C15.9329 62.7639 16.6699 62.0239 16.6699 61.1159V58.7599H14.4879C14.2889 58.7589 14.0879 58.7499 13.8589 58.7409ZM40.8589 58.7419C40.6599 58.7499 40.4609 58.7589 40.2609 58.7589H38.0799V61.1149C38.0799 62.0239 38.8099 62.7629 39.7089 62.7629H40.2619C41.1659 62.7629 41.9009 62.0229 41.9009 61.1149V59.7089L41.8699 58.6979L40.8589 58.7419Z" fill="#978667"/>
<path d="M48.0983 50.4389C47.3323 50.4389 46.5943 50.1679 46.0123 49.6629C45.4493 50.1579 44.7133 50.4389 43.9283 50.4389C43.1533 50.4389 42.4243 50.1679 41.8443 49.6629C41.2813 50.1579 40.5433 50.4389 39.7583 50.4389C38.9733 50.4389 38.2463 50.1679 37.6743 49.6629C37.1113 50.1379 36.3833 50.4289 35.5883 50.4289C33.8153 50.4289 32.3693 48.9839 32.3693 47.2099V40.1799H3.69531V47.9669C3.69531 53.3199 7.68931 57.9159 12.9843 58.6529C13.0043 58.6529 13.0233 58.6629 13.0433 58.6629C13.5373 58.7209 14.0123 58.7599 14.4883 58.7599H40.2613C40.7753 58.7599 41.2813 58.7209 41.7553 58.6439C46.3313 58.0139 49.9583 54.5519 50.8413 50.1009C50.6093 49.9839 50.3963 49.8389 50.1913 49.6639C49.6293 50.1479 48.8933 50.4389 48.0983 50.4389Z" fill="#978667"/>
</svg>
