<svg width="24" height="24" viewBox="0 0 24 24" fill="none" xmlns="http://www.w3.org/2000/svg">
<path d="M5 19H4L3.35 17H2V11.975C2 11.425 2.196 10.9583 2.588 10.575C2.98 10.1917 3.45067 10 4 10V7C4 6.45 4.196 5.97933 4.588 5.588C4.98 5.19667 5.45067 5.00067 6 5H18C18.55 5 19.021 5.196 19.413 5.588C19.805 5.98 20.0007 6.45067 20 7V10C20.55 10 21.021 10.196 21.413 10.588C21.805 10.98 22.0007 11.4507 22 12V17H20.65L20 19H19L18.35 17H5.65L5 19ZM13 10H18V7H13V10ZM6 10H11V7H6V10Z" fill="#978667"/>
</svg>
