<svg width="24" height="24" viewBox="0 0 24 24" fill="none" xmlns="http://www.w3.org/2000/svg">
<path d="M8.691 2.15206C5.801 1.36306 3 3.74906 3 7.00006C3 10.2511 5.8 12.6371 8.691 11.8481C10.998 11.2191 14.204 9.58006 16.624 9.80206C17.501 9.88206 18.126 10.6461 18.947 10.8711C20.056 11.1741 20.49 9.50006 20.729 8.75306C21.0907 7.61238 21.0907 6.38774 20.729 5.24706C20.49 4.50006 20.056 2.82706 18.947 3.12906C18.126 3.35406 17.501 4.11806 16.624 4.19806C14.204 4.42006 10.998 2.78106 8.691 2.15206Z" stroke="#978667" stroke-width="1.5" stroke-linecap="round" stroke-linejoin="round"/>
<path d="M5.5 11.5C6.872 12.91 6.774 15.268 6.819 17.376C6.837 18.252 7.503 19 8.347 19H9.567C10.237 19 10.64 17.496 10.847 17.022C11.121 16.392 11.004 15.674 10.676 15.072C9.982 13.803 9.5 13 10 11.5M16.5 4.5L16.879 6.02C17.0415 6.66322 17.0415 7.33678 16.879 7.98L16.5 9.5M9 19C9 19.932 9 20.398 8.826 20.765C8.594 21.255 8.149 21.645 7.589 21.848C7.169 22 6.065 22 5 22" stroke="#978667" stroke-width="1.5" stroke-linecap="round" stroke-linejoin="round"/>
</svg>
