<svg width="90" height="90" viewBox="0 0 90 90" fill="none" xmlns="http://www.w3.org/2000/svg">
<path d="M27.3 37.9312C27.7645 37.9287 28.2249 38.0181 28.6547 38.1941C29.0846 38.3702 29.4754 38.6294 29.8047 38.957C30.134 39.2846 30.3953 39.674 30.5736 40.1029C30.752 40.5318 30.8438 40.9917 30.8438 41.4562V53.8499H37.9312V41.4562C37.9312 40.5213 38.3026 39.6247 38.9637 38.9636C39.6248 38.3026 40.5214 37.9312 41.4563 37.9312H48.5437C49.4786 37.9312 50.3752 38.3026 51.0363 38.9636C51.6974 39.6247 52.0688 40.5213 52.0688 41.4562V53.8499H59.1562V41.4562C59.1562 40.9917 59.248 40.5318 59.4264 40.1029C59.6047 39.674 59.866 39.2846 60.1953 38.957C60.5246 38.6294 60.9154 38.3702 61.3453 38.1941C61.7751 38.0181 62.2355 37.9287 62.7 37.9312H69.7687C70.7054 37.9312 71.6039 38.302 72.268 38.9625C72.932 39.623 73.3075 40.5196 73.3125 41.4562V53.8499H75C75.248 53.8244 75.4986 53.8512 75.7356 53.9286C75.9726 54.006 76.1907 54.1323 76.3758 54.2993C76.5609 54.4663 76.7089 54.6704 76.8101 54.8982C76.9114 55.126 76.9638 55.3725 76.9638 55.6218C76.9638 55.8711 76.9114 56.1177 76.8101 56.3455C76.7089 56.5733 76.5609 56.7773 76.3758 56.9443C76.1907 57.1113 75.9726 57.2376 75.7356 57.315C75.4986 57.3924 75.248 57.4192 75 57.3937H73.3125V76.8749C73.3125 77.8148 72.9391 78.7162 72.2746 79.3808C71.61 80.0453 70.7086 80.4187 69.7687 80.4187H62.7C62.2339 80.4212 61.772 80.3312 61.3409 80.154C60.9099 79.9768 60.5182 79.7159 60.1886 79.3863C59.8591 79.0567 59.5981 78.6651 59.4209 78.234C59.2437 77.803 59.1538 77.341 59.1562 76.8749V57.3937H52.0688V76.8749C52.0712 77.3394 51.9819 77.7998 51.8058 78.2297C51.6298 78.6595 51.3705 79.0503 51.043 79.3796C50.7154 79.7089 50.326 79.9703 49.8971 80.1486C49.4682 80.3269 49.0082 80.4187 48.5437 80.4187H41.4563C40.9918 80.4187 40.5318 80.3269 40.1029 80.1486C39.674 79.9703 39.2846 79.7089 38.957 79.3796C38.6295 79.0503 38.3702 78.6595 38.1942 78.2297C38.0181 77.7998 37.9288 77.3394 37.9312 76.8749V57.3937H30.8438V76.8749C30.8462 77.341 30.7563 77.803 30.5791 78.234C30.4019 78.6651 30.1409 79.0567 29.8114 79.3863C29.4818 79.7159 29.0901 79.9768 28.6591 80.154C28.228 80.3312 27.7661 80.4212 27.3 80.4187H20.2312C19.2914 80.4187 18.39 80.0453 17.7254 79.3808C17.0609 78.7162 16.6875 77.8148 16.6875 76.8749V57.3937H15C14.5185 57.3943 14.0553 57.2097 13.7062 56.8781C13.3572 56.5465 13.1491 56.0933 13.125 55.6124C13.1537 55.1349 13.3638 54.6864 13.7124 54.3588C14.061 54.0311 14.5216 53.8491 15 53.8499H16.6875V41.4562C16.6925 40.5196 17.068 39.623 17.732 38.9625C18.3961 38.302 19.2946 37.9312 20.2312 37.9312H27.3ZM25.5375 41.4562H21.9937C21.532 41.4834 21.0966 41.6804 20.7712 42.0092C20.4459 42.338 20.2536 42.7754 20.2312 43.2374V74.9999C20.2312 75.4674 20.4169 75.9157 20.7475 76.2462C21.078 76.5768 21.5263 76.7624 21.9937 76.7624H25.5375C26.0049 76.7624 26.4532 76.5768 26.7838 76.2462C27.1143 75.9157 27.3 75.4674 27.3 74.9999V43.1249C27.2517 42.683 27.048 42.2726 26.7252 41.9669C26.4024 41.6612 25.9814 41.4802 25.5375 41.4562ZM46.7625 41.4562H43.2375C42.7724 41.4789 42.3324 41.6739 42.0032 42.0031C41.6739 42.3324 41.479 42.7724 41.4563 43.2374V74.9999C41.4835 75.4617 41.6804 75.8971 42.0092 76.2225C42.338 76.5478 42.7755 76.7401 43.2375 76.7624H46.7625C47.2245 76.7401 47.662 76.5478 47.9908 76.2225C48.3196 75.8971 48.5165 75.4617 48.5437 74.9999V43.1249C48.4949 42.68 48.2885 42.2671 47.9618 41.961C47.6351 41.655 47.2097 41.4759 46.7625 41.4562ZM68.0063 41.4562H64.4625C64.0007 41.4834 63.5653 41.6804 63.24 42.0092C62.9146 42.338 62.7223 42.7754 62.7 43.2374V74.9999C62.7 75.4674 62.8857 75.9157 63.2162 76.2462C63.5468 76.5768 63.9951 76.7624 64.4625 76.7624H68.0063C68.4737 76.7624 68.922 76.5768 69.2525 76.2462C69.5831 75.9157 69.7687 75.4674 69.7687 74.9999V43.1249C69.7205 42.683 69.5168 42.2726 69.1939 41.9669C68.8711 41.6612 68.4502 41.4802 68.0063 41.4562ZM31.875 10.4812C32.0748 10.857 32.1179 11.2965 31.9949 11.7039C31.872 12.1113 31.593 12.4536 31.2187 12.6562C30.5423 12.9444 29.9655 13.425 29.56 14.0384C29.1546 14.6519 28.9384 15.3709 28.9384 16.1062C28.9384 16.8415 29.1546 17.5605 29.56 18.1739C29.9655 18.7873 30.5423 19.268 31.2187 19.5562C32.4126 20.1179 33.4261 21.0017 34.1449 22.1081C34.8637 23.2145 35.2594 24.4996 35.2875 25.8187C35.2663 27.0724 34.9066 28.2971 34.2465 29.3632C33.5864 30.4293 32.6504 31.2972 31.5375 31.8749L31.1438 32.0999C30.964 32.2132 30.7637 32.29 30.5543 32.3258C30.3449 32.3617 30.1305 32.3559 29.9233 32.3089C29.7161 32.2619 29.5202 32.1746 29.3468 32.0518C29.1733 31.9291 29.0258 31.7734 28.9125 31.5937C28.7992 31.414 28.7225 31.2137 28.6866 31.0042C28.6508 30.7948 28.6565 30.5804 28.7035 30.3732C28.7505 30.166 28.8379 29.9701 28.9606 29.7967C29.0833 29.6233 29.239 29.4757 29.4187 29.3624C30.1101 29.0742 30.7049 28.5947 31.1333 27.9803C31.5617 27.3659 31.806 26.6421 31.8375 25.8937C31.8067 25.1548 31.5665 24.44 31.1449 23.8324C30.7233 23.2249 30.1376 22.7498 29.4563 22.4624C28.2386 21.9182 27.2037 21.0344 26.4755 19.9171C25.7472 18.7997 25.3564 17.4962 25.35 16.1624C25.3568 14.9055 25.7105 13.6749 26.3722 12.6063C27.0339 11.5376 27.9779 10.6725 29.1 10.1062L29.4937 9.8812C29.684 9.74575 29.9014 9.65324 30.1309 9.61007C30.3604 9.5669 30.5965 9.57409 30.823 9.63115C31.0494 9.68821 31.2608 9.79377 31.4424 9.94054C31.6241 10.0873 31.7717 10.2718 31.875 10.4812ZM57.825 10.4812C58.0248 10.857 58.0679 11.2965 57.9449 11.7039C57.822 12.1113 57.543 12.4536 57.1687 12.6562C56.4923 12.9444 55.9155 13.425 55.51 14.0384C55.1046 14.6519 54.8884 15.3709 54.8884 16.1062C54.8884 16.8415 55.1046 17.5605 55.51 18.1739C55.9155 18.7873 56.4923 19.268 57.1687 19.5562C58.3626 20.1179 59.3761 21.0017 60.0949 22.1081C60.8137 23.2145 61.2094 24.4996 61.2375 25.8187C61.2104 27.0711 60.8482 28.2934 60.1887 29.3584C59.5293 30.4235 58.5965 31.2924 57.4875 31.8749L57.0938 32.0999C56.914 32.2132 56.7137 32.29 56.5043 32.3258C56.2949 32.3617 56.0805 32.3559 55.8733 32.3089C55.6661 32.2619 55.4702 32.1746 55.2968 32.0518C55.1233 31.9291 54.9758 31.7734 54.8625 31.5937C54.7492 31.414 54.6725 31.2137 54.6366 31.0042C54.6008 30.7948 54.6065 30.5804 54.6535 30.3732C54.7005 30.166 54.7879 29.9701 54.9106 29.7967C55.0333 29.6233 55.189 29.4757 55.3688 29.3624C56.0575 29.0704 56.6498 28.59 57.0777 27.9764C57.5055 27.3628 57.7516 26.6409 57.7875 25.8937C57.7523 25.156 57.5104 24.4431 57.0893 23.8363C56.6682 23.2296 56.085 22.7535 55.4062 22.4624C54.221 21.9411 53.2075 21.0951 52.4827 20.0222C51.7579 18.9493 51.3514 17.6932 51.3103 16.399C51.2691 15.1049 51.5949 13.8255 52.25 12.7086C52.9051 11.5918 53.8628 10.6831 55.0125 10.0874L55.4062 9.8812C55.7843 9.68288 56.2256 9.64256 56.6333 9.7691C57.041 9.89563 57.3819 10.1787 57.5812 10.5562L57.825 10.4812ZM44.85 10.4812C45.0498 10.857 45.0929 11.2965 44.9699 11.7039C44.847 12.1113 44.568 12.4536 44.1937 12.6562C43.5173 12.9444 42.9405 13.425 42.535 14.0384C42.1296 14.6519 41.9134 15.3709 41.9134 16.1062C41.9134 16.8415 42.1296 17.5605 42.535 18.1739C42.9405 18.7873 43.5173 19.268 44.1937 19.5562C45.3876 20.1179 46.4011 21.0017 47.1199 22.1081C47.8387 23.2145 48.2344 24.4996 48.2625 25.8187C48.2413 27.0724 47.8816 28.2971 47.2215 29.3632C46.5614 30.4293 45.6254 31.2972 44.5125 31.8749L44.1188 32.0999C43.9365 32.2095 43.7345 32.2821 43.5243 32.3136C43.314 32.3451 43.0996 32.3349 42.8933 32.2836C42.6869 32.2322 42.4928 32.1407 42.3218 32.0143C42.1508 31.8879 42.0064 31.729 41.8969 31.5468C41.7873 31.3646 41.7147 31.1626 41.6832 30.9523C41.6517 30.7421 41.6619 30.5276 41.7133 30.3213C41.7646 30.115 41.8561 29.9208 41.9825 29.7499C42.1089 29.5789 42.2678 29.4345 42.45 29.3249C43.1715 29.0542 43.7977 28.5776 44.251 27.9544C44.7043 27.3311 44.9647 26.5886 45 25.8187C44.9692 25.0798 44.729 24.365 44.3074 23.7574C43.8858 23.1499 43.3001 22.6748 42.6187 22.3874C41.4025 21.8412 40.3689 20.9571 39.6409 19.8401C38.9129 18.7232 38.5213 17.4206 38.5125 16.0874C38.52 14.8283 38.8739 13.5954 39.5353 12.5239C40.1968 11.4524 41.1402 10.5835 42.2625 10.0124L42.6562 9.8062C43.0343 9.60788 43.4756 9.56756 43.8833 9.6941C44.291 9.82063 44.6319 10.1037 44.8312 10.4812H44.85Z" fill="#978667"/>
</svg>
