<svg width="256" height="256" viewBox="0 0 256 256" fill="none" xmlns="http://www.w3.org/2000/svg">
<path d="M68 236C68 239.165 67.0616 242.258 65.3035 244.889C63.5454 247.52 61.0466 249.571 58.1229 250.782C55.1993 251.993 51.9823 252.31 48.8786 251.693C45.7749 251.075 42.9239 249.551 40.6863 247.314C38.4487 245.076 36.9248 242.225 36.3074 239.121C35.6901 236.018 36.0069 232.801 37.2179 229.877C38.4289 226.953 40.4797 224.455 43.1109 222.696C45.7421 220.938 48.8355 220 52 220C56.2435 220 60.3131 221.686 63.3137 224.686C66.3143 227.687 68 231.757 68 236ZM84 188C80.8355 188 77.7421 188.938 75.1109 190.696C72.4797 192.455 70.4289 194.953 69.2179 197.877C68.0069 200.801 67.6901 204.018 68.3074 207.121C68.9248 210.225 70.4487 213.076 72.6863 215.314C74.9239 217.551 77.7749 219.075 80.8786 219.693C83.9823 220.31 87.1993 219.993 90.1229 218.782C93.0466 217.571 95.5454 215.52 97.3035 212.889C99.0616 210.258 100 207.165 100 204C100 199.757 98.3143 195.687 95.3137 192.686C92.3131 189.686 88.2435 188 84 188ZM20 188C16.8355 188 13.7421 188.938 11.1109 190.696C8.4797 192.455 6.42894 194.953 5.21793 197.877C4.00693 200.801 3.69008 204.018 4.30744 207.121C4.92481 210.225 6.44866 213.076 8.6863 215.314C10.9239 217.551 13.7749 219.075 16.8786 219.693C19.9823 220.31 23.1993 219.993 26.1229 218.782C29.0466 217.571 31.5454 215.52 33.3035 212.889C35.0616 210.258 36 207.165 36 204C36 199.757 34.3143 195.687 31.3137 192.686C28.3131 189.686 24.2435 188 20 188ZM52 188C55.1645 188 58.2579 187.062 60.8891 185.304C63.5203 183.545 65.5711 181.047 66.7821 178.123C67.9931 175.199 68.3099 171.982 67.6926 168.879C67.0752 165.775 65.5514 162.924 63.3137 160.686C61.0761 158.449 58.2251 156.925 55.1215 156.307C52.0178 155.69 48.8007 156.007 45.8771 157.218C42.9535 158.429 40.4546 160.48 38.6965 163.111C36.9384 165.742 36 168.835 36 172C36 176.243 37.6857 180.313 40.6863 183.314C43.6869 186.314 47.7565 188 52 188ZM256 40C256 43.1826 254.736 46.2349 252.485 48.4853C250.235 50.7357 247.183 52 244 52H221L195.19 77.79L173.74 203.33C173.127 206.948 171.529 210.328 169.123 213.099C166.717 215.87 163.595 217.926 160.099 219.041C156.603 220.157 152.867 220.288 149.3 219.422C145.734 218.556 142.475 216.725 139.88 214.13L41.88 116.13C39.2789 113.533 37.4439 110.269 36.5765 106.697C35.709 103.125 35.8427 99.3835 36.9628 95.8826C38.0829 92.3817 40.1462 89.2572 42.9259 86.8523C45.7057 84.4473 49.0944 82.8549 52.72 82.25L178.22 60.81L207.51 31.51C208.625 30.396 209.949 29.5126 211.406 28.9104C212.863 28.3081 214.424 27.9988 216 28H244C247.183 28 250.235 29.2643 252.485 31.5147C254.736 33.7652 256 36.8174 256 40ZM169.32 86.68L64.32 104.62L151.39 191.69L169.32 86.68Z" fill="#978667"/>
</svg>
