<svg width="50" height="50" viewBox="0 0 50 50" fill="none" xmlns="http://www.w3.org/2000/svg">
<path d="M6 11V44.74C6 46.21 7.237 48 8.76 48H41.978C43.497 48 45 46.21 45 44.74V11H6ZM25.46 37.776C19.6 37.776 14.849 33.182 14.849 27.513C14.849 21.844 19.6 17.25 25.46 17.25C31.32 17.25 36.071 21.844 36.071 27.513C36.071 33.183 31.32 37.776 25.46 37.776ZM41.978 1H8.76C7.237 1 6 2.033 6 3.505V9H45V3.505C45 2.033 43.497 1 41.978 1ZM19 7H8V3H19V7ZM38.146 6.72C36.897 6.72 35.888 5.741 35.888 4.532C35.888 3.325 36.897 2.346 38.146 2.346C39.395 2.346 40.407 3.325 40.407 4.532C40.406 5.74 39.395 6.72 38.146 6.72Z" fill="#978667"/>
</svg>
