<svg width="64" height="64" viewBox="0 0 64 64" fill="none" xmlns="http://www.w3.org/2000/svg">
<g clip-path="url(#clip0_274_7)">
<path d="M60.7002 38.6998V35.1698C60.7002 32.3498 58.4002 30.0398 55.5702 30.0398H29.3402C26.5202 30.0398 24.2202 32.3498 24.2202 35.1698V38.6998C22.3202 39.0298 20.9102 40.6898 20.9102 42.6098V54.4398C20.9102 54.8198 21.2202 55.1298 21.6102 55.1298H63.3202C63.7002 55.1298 64.0102 54.8198 64.0102 54.4398V42.5998C64.0002 40.6898 62.5902 39.0298 60.7002 38.6998ZM27.5202 42.5998V53.7398H22.2902V42.5998C22.2902 41.1698 23.4602 39.9998 24.9002 39.9998C26.3502 39.9998 27.5202 41.1698 27.5202 42.5998ZM56.0202 46.9498V53.7498H28.8902V46.9498H56.0202ZM57.4002 42.5998C57.4002 41.1698 58.5702 39.9998 60.0102 39.9998C61.4502 39.9998 62.6202 41.1698 62.6202 42.5998V53.7398H57.4002V42.5998Z" fill="#978667"/>
<path d="M33.7703 23.5098H47.5603C47.9403 23.5098 48.2503 23.1998 48.2503 22.8098V13.0398C48.2503 12.6598 47.9403 12.3398 47.5603 12.3398H33.7703C33.3803 12.3398 33.0703 12.6598 33.0703 13.0398V22.8098C33.0703 23.1998 33.3803 23.5098 33.7703 23.5098ZM46.8803 21.1298V22.1298H44.5103L42.3103 19.8898L44.0003 18.0098L46.8803 21.1298ZM43.9903 16.3098C43.8003 16.3098 43.6103 16.3898 43.4803 16.5398L41.3503 18.9098L37.7403 15.2098C37.6103 15.0798 37.4403 15.0098 37.2303 15.0098C37.0503 15.0098 36.8603 15.0898 36.7403 15.2298L34.4403 17.6898V13.7298H46.8603V19.0998L44.4803 16.5298C44.3703 16.3898 44.1803 16.3098 43.9903 16.3098Z" fill="#978667"/>
<path d="M26.19 26.4299H30.2C30.58 26.4299 30.89 26.1199 30.89 25.7399V24.6299C30.89 20.5099 27.71 17.1199 23.62 16.8299C23.28 14.8699 22.35 13.0399 20.98 11.6699C19.18 9.86988 16.79 8.87988 14.24 8.87988C8.99 8.87988 4.72 13.1499 4.72 18.4099V52.4599H0.69C0.31 52.4599 0 52.7699 0 53.1499C0 53.5299 0.31 53.8399 0.69 53.8399H10.65C11.03 53.8399 11.34 53.5299 11.34 53.1499C11.34 52.7699 11.03 52.4599 10.65 52.4599H6.09V18.4099C6.09 13.9199 9.74 10.2499 14.23 10.2499C16.41 10.2499 18.45 11.0999 19.99 12.6399C21.11 13.7599 21.9 15.2499 22.22 16.8399C18.28 17.2699 15.22 20.6399 15.22 24.6199V25.7299C15.22 26.1099 15.53 26.4199 15.92 26.4199H19.93C20.25 27.8899 21.53 28.9399 23.05 28.9399C24.57 28.9399 25.87 27.9099 26.19 26.4299Z" fill="#978667"/>
</g>
<defs>
<clipPath id="clip0_274_7">
<rect width="64" height="64" fill="white"/>
</clipPath>
</defs>
</svg>
