<svg width="48" height="48" viewBox="0 0 48 48" fill="none" xmlns="http://www.w3.org/2000/svg">
<path d="M24 14.24C26.387 14.24 28.6761 15.1882 30.364 16.876C32.0518 18.5639 33 20.853 33 23.24C33 25.02 32.4722 26.7601 31.4832 28.2401C30.4943 29.7202 29.0887 30.8737 27.4442 31.5549C25.7996 32.2361 23.99 32.4143 22.2442 32.0671C20.4984 31.7198 18.8947 30.8626 17.636 29.604C16.3774 28.3453 15.5202 26.7416 15.1729 24.9958C14.8257 23.25 15.0039 21.4404 15.6851 19.7958C16.3663 18.1513 17.5198 16.7457 18.9999 15.7568C20.4799 14.7678 22.22 14.24 24 14.24ZM24 18.24C24.9363 18.2289 25.8437 18.5638 26.5482 19.1806C27.2527 19.7973 27.7047 20.6525 27.8175 21.582C27.9302 22.5115 27.6959 23.45 27.1593 24.2173C26.6227 24.9847 25.8218 25.5269 24.91 25.74V28.14C24.91 28.3813 24.8141 28.6128 24.6435 28.7835C24.4728 28.9541 24.2414 29.05 24 29.05C23.7587 29.05 23.5272 28.9541 23.3565 28.7835C23.1859 28.6128 23.09 28.3813 23.09 28.14V25.74C22.1782 25.5269 21.3773 24.9847 20.8407 24.2173C20.3041 23.45 20.0698 22.5115 20.1826 21.582C20.2953 20.6525 20.7473 19.7973 21.4518 19.1806C22.1563 18.5638 23.0637 18.2289 24 18.24Z" stroke="#978667" stroke-linecap="round" stroke-linejoin="round"/>
<path d="M22.1999 4.86L6.68994 11.25V27C6.68994 35.44 23.9999 43.5 23.9999 43.5C23.9999 43.5 41.3099 35.44 41.3099 27V11.25L25.7999 4.86C25.2296 4.62235 24.6178 4.5 23.9999 4.5C23.3821 4.5 22.7703 4.62235 22.1999 4.86Z" stroke="#978667" stroke-linecap="round" stroke-linejoin="round"/>
</svg>
