<svg width="835" height="1000" viewBox="0 0 835 1000" fill="none" xmlns="http://www.w3.org/2000/svg">
<path d="M249.86 349.704L196.34 384.755C193.44 386.656 189.82 383.528 191.54 380.591L201.98 362.899C202.4 362.167 202.6 361.397 202.6 360.636C202.6 358.706 201.34 356.872 199.25 356.206C197.38 355.617 195.32 356.14 194.01 357.547L143.9 411.811L142.26 413.636C138.3 397.037 135.79 379.992 134.86 362.709C134.8 361.549 134.74 360.389 134.69 359.229L193.26 316.582C193.26 316.582 229.55 272.424 244.07 282.083C258.59 291.741 244.07 315.204 244.07 315.204C244.07 315.204 236.81 324.863 239.72 323.484C239.97 323.37 240.27 323.266 240.63 323.18C244.71 322.172 255.92 322.904 258.59 331.764C261.48 341.423 249.86 349.704 249.86 349.704Z" fill="url(#paint0_linear_278_304)"/>
<path d="M688.28 400.821C687.39 405.432 686.41 410.014 685.3 414.568H609.66L611.24 412.799L564.9 375.001C579.26 363.84 611.16 337.602 605.5 329.008C602.6 324.587 598.76 322.828 595.21 322.305C605.78 315.223 621.66 309.034 627.28 330.396C634.11 356.339 672.16 388.244 688.28 400.821Z" fill="url(#paint1_linear_278_304)"/>
<path d="M564.91 375.001C563.47 376.104 562.21 377.073 561.18 377.853C559.29 379.288 558.18 380.106 558.18 380.106L530.77 353.516L514.5 337.744L512.61 335.909L514.73 334.056L582.29 275.181L597.53 280.457L604.06 294.508L585.19 323.484C585.19 323.484 589.89 321.497 595.22 322.296C598.78 322.819 602.61 324.587 605.51 328.998C611.17 337.602 579.27 363.831 564.91 375.001Z" fill="url(#paint2_linear_278_304)"/>
<path d="M693.35 348.363C693.35 350.531 693.32 352.679 693.26 354.837C692.85 370.381 691.16 385.753 688.28 400.821C672.15 388.253 634.11 356.339 627.28 330.386C621.66 309.025 605.78 315.223 595.21 322.296C592.6 324.045 590.32 325.861 588.59 327.315C586.62 328.989 583.61 328.884 581.74 327.106C580.77 326.184 580.27 324.967 580.27 323.741C580.27 322.496 580.79 321.241 581.82 320.318C588.57 314.272 601.02 300.24 593.16 284.05C591.13 279.887 585.41 278.774 581.76 281.797L516.83 335.786L514.48 337.735L512.8 339.142L510.94 334.712L509.69 331.755L510.76 330.833L585.19 266.9L693.35 348.363Z" fill="#1C1302"/>
<path d="M611.25 412.8L609.66 414.568H600.04L579.86 398.102L577.54 396.21L577.52 396.191L421.08 268.555L413.91 262.708L412.47 263.877L412.46 263.896L229.16 414.568H216.23L216.4 414.397L219.34 411.706L315.69 332.478L321.12 328.019L413.88 251.775L506.53 327.363L510.78 330.843L513.19 332.801L514.73 334.056L516.85 335.795L564.91 375.001L611.25 412.8Z" fill="#1C1302"/>
<path d="M693.36 347.251C693.36 347.621 693.36 347.992 693.35 348.372C693.35 350.54 693.32 352.688 693.26 354.846L597.53 280.466L585.34 270.988L513.19 332.81L510.95 334.73L509.51 335.957L503.67 329.806L506.52 327.382L585.04 260.093L693.33 344.237C693.36 345.216 693.36 346.243 693.36 347.251Z" fill="#1C1302"/>
<path d="M311.62 340.016L311.98 340.387C311.98 340.387 303.58 347.289 291.64 356.929L289.83 358.393C280.28 366.103 268.72 375.353 257.49 384.156L256.58 384.869C239.78 398.007 223.86 410.119 216.44 414.473C216.4 414.501 216.34 414.53 216.29 414.558H211.95C213.15 408.113 234.46 387.141 259.82 369.753C259.99 369.611 260.18 369.487 260.36 369.363C261.22 368.784 262.07 368.204 262.93 367.643C264.95 366.302 266.76 365.009 268.39 363.735C290.31 346.804 279.35 336.594 271.64 324.863C269.83 322.106 267.65 320.195 265.4 318.911C259.56 315.546 252.12 316.069 246.47 319.729L241.4 323.028L234.81 327.315L229.85 330.548C229.07 331.061 228.15 330.082 228.78 329.388C247.33 309.063 242.21 295.687 237.13 289.27C235.03 286.617 230.92 286.418 228.49 288.804C196.47 320.242 154.65 349.675 134.87 362.965C132.63 364.467 130.67 365.77 129.05 366.844C128.99 365.684 128.93 364.525 128.88 363.365C128.72 359.372 128.63 355.389 128.63 351.386C128.63 350.131 128.64 348.877 128.66 347.622L134.48 343.106L236 264.21L315.32 332.164L315.7 332.477L317.38 333.922L311.62 340.016Z" fill="#1C1302"/>
<path d="M268.73 363.507C268.61 363.593 268.5 363.659 268.38 363.745C265.67 365.551 262.98 367.433 260.35 369.373C260.18 369.496 259.99 369.62 259.81 369.762C234.93 388.044 214.45 410.223 216.39 414.406C216.46 414.567 216.39 414.463 216.42 414.491C216.43 414.52 216.45 414.548 216.46 414.577H142.46C142.39 414.273 142.31 413.959 142.24 413.636L143.88 411.81L194 357.537C195.31 356.13 197.37 355.607 199.24 356.196C201.33 356.862 202.59 358.697 202.59 360.627C202.59 361.387 202.39 362.157 201.97 362.889L191.53 380.581C189.82 383.519 193.43 386.656 196.33 384.745L249.85 349.694C249.85 349.694 261.46 341.413 258.56 331.755C258.1 330.224 257.38 328.922 256.48 327.847C256.23 327.543 255.96 327.258 255.68 326.982C255.2 326.517 254.69 326.089 254.14 325.708C253.89 325.528 253.63 325.366 253.37 325.214C249.38 322.828 244.27 322.552 241.38 323.018C241.35 323.018 241.31 323.028 241.28 323.028C241.03 323.066 240.8 323.113 240.6 323.17L252.26 315.584C257.91 311.924 265.35 311.401 271.19 314.766C273.44 316.05 275.62 317.951 277.43 320.717C285.73 333.323 297.77 344.18 268.73 363.507Z" fill="url(#paint3_linear_278_304)"/>
<path d="M603.511 414.568H525.701C525.701 414.568 505.871 376.627 492.541 361.787L492.531 361.777C479.261 346.985 554.701 380.078 554.701 380.078L577.521 396.191L577.531 396.201L580.331 398.178L603.511 414.568Z" fill="url(#paint4_linear_278_304)"/>
<path d="M588.09 399.386C588.09 399.386 585.23 399.072 580.34 398.188C580.18 398.16 580.02 398.131 579.86 398.103C563.18 395.08 524.29 385.858 492.54 361.778L492.53 361.768C477.85 350.645 464.7 336.319 455.99 317.971C455.99 317.971 450.36 285.848 412.76 329.683C412.18 330.358 411.58 331.052 410.99 331.765C410.99 331.765 377.6 348.326 387.76 326.242C396.11 308.122 408.36 275.115 412.47 263.878C413.38 261.425 413.89 259.999 413.89 259.999C413.89 259.999 413.93 260.037 414.04 260.123L588.09 399.386Z" fill="#1C1302"/>
<path d="M429.86 351.082C441.3 330.234 425.17 328.437 412.76 329.682C450.36 285.838 455.99 317.97 455.99 317.97C464.7 336.328 477.85 350.645 492.53 361.767L492.54 361.777C505.87 376.626 525.7 414.558 525.7 414.558H343.61C367.95 402.047 416.93 374.649 429.86 351.082Z" fill="url(#paint5_linear_278_304)"/>
<path d="M377.611 351.082C374.041 368.042 336.341 402.627 322.851 414.558H284.851C297.551 403.645 381.631 331.945 377.611 351.082Z" fill="#643919"/>
<path d="M429.86 351.083C416.93 374.65 367.95 402.048 343.6 414.559H322.84C336.33 402.618 374.02 368.042 377.6 351.083C381.62 331.946 297.54 403.645 284.84 414.559H219.94L413.88 260.009L413.89 259.999C413.89 259.999 413.93 260.037 414.04 260.123C414.75 260.76 418.03 263.764 421.08 268.555C428.43 280.106 434.48 302.009 400.34 325.975C399 326.917 398.69 328.694 399.6 330.006C400.2 330.852 401.18 331.328 402.21 331.328C402.44 331.328 402.67 331.318 402.91 331.261C405.09 330.776 408.73 330.063 412.77 329.674C425.18 328.438 441.3 330.234 429.86 351.083Z" fill="url(#paint6_linear_278_304)"/>
<path d="M352.49 459.411L340.78 473.214H163.67C161.57 468.936 159.56 464.592 157.69 460.19V459.42H352.49V459.411Z" fill="#DDCCBA"/>
<path d="M313.81 504.958L302.08 518.761H191.49C188.11 514.265 184.89 509.654 181.79 504.958H313.81Z" fill="#DDCCBA"/>
<path d="M371.84 436.642L352.49 459.411H157.68V460.181C154.37 452.48 151.391 444.628 148.771 436.642H371.84Z" fill="url(#paint7_linear_278_304)"/>
<path d="M340.78 473.214L313.81 504.957H181.8C175.08 494.776 169.03 484.176 163.67 473.214H340.78Z" fill="url(#paint8_linear_278_304)"/>
<path d="M302.08 518.751L251.72 578.007C229.09 561.437 207.98 540.788 191.49 518.751H302.08Z" fill="url(#paint9_linear_278_304)"/>
<path d="M668.601 459.411V463.565C667.181 466.807 665.671 470.02 664.101 473.214H486.171L474.221 459.411H668.601Z" fill="#DDCCBA"/>
<path d="M645.37 504.957V505.879C642.47 510.243 639.43 514.549 636.28 518.751H525.6L513.65 504.948H645.37V504.957Z" fill="#DDCCBA"/>
<path d="M668.6 463.565V459.411H474.23L454.521 436.642H679C675.99 445.797 672.52 454.79 668.6 463.565Z" fill="url(#paint10_linear_278_304)"/>
<path d="M645.37 505.879V504.957H513.65L486.17 473.214H664.1C658.58 484.499 652.33 495.422 645.37 505.879Z" fill="url(#paint11_linear_278_304)"/>
<path d="M636.291 518.751C620.131 540.351 598.711 561.218 576.581 577.636L576.421 577.455L525.601 518.751H636.291Z" fill="url(#paint12_linear_278_304)"/>
<path d="M704.73 347.251C704.73 349.171 704.72 351.101 704.67 353.021C704.63 355.065 704.57 357.09 704.48 359.125C703.65 379.973 700.63 400.659 695.51 420.785C694.16 426.128 692.66 431.414 691.01 436.652C685.97 452.728 679.57 468.338 671.88 483.254C651.05 523.609 620.74 559.069 584.2 585.812L584.16 585.774L576.58 577.645C598.7 561.227 620.13 540.36 636.29 518.761C639.44 514.55 642.47 510.243 645.38 505.889C652.33 495.432 658.59 484.508 664.11 473.224C665.68 470.039 667.19 466.817 668.61 463.575C672.53 454.8 676 445.797 679 436.652C681.41 429.389 683.51 422.021 685.31 414.568C686.41 410.014 687.4 405.432 688.29 400.821C691.16 385.753 692.86 370.381 693.27 354.837C693.33 352.689 693.36 350.531 693.36 348.363C693.37 347.992 693.37 347.622 693.37 347.241C693.37 346.234 693.37 345.217 693.34 344.209C691.74 189.316 566.99 63.8186 413.9 63.8186C261.16 63.8186 136.65 188.708 134.48 343.106C134.47 343.23 134.47 343.353 134.47 343.477C134.46 344.732 134.44 345.987 134.44 347.241C134.44 351.244 134.53 355.227 134.69 359.22C134.75 360.38 134.81 361.539 134.86 362.699C134.86 362.785 134.87 362.88 134.87 362.965C135.81 380.144 138.31 397.104 142.26 413.627C142.33 413.94 142.41 414.264 142.48 414.568C144.29 422.021 146.38 429.389 148.78 436.652C151.41 444.637 154.38 452.49 157.69 460.19C159.56 464.592 161.57 468.937 163.67 473.215C169.03 484.176 175.08 494.766 181.8 504.957C184.89 509.654 188.11 514.255 191.5 518.761C207.99 540.798 229.08 561.427 251.71 578.007L244.52 586.373L244.45 586.439C207.67 559.725 177.15 524.218 156.16 483.738C136.66 446.13 125.46 404.139 123.41 361.492C123.4 361.349 123.4 361.226 123.4 361.093C123.37 360.817 123.37 360.522 123.36 360.247C123.24 357.594 123.16 354.961 123.11 352.308C123.08 350.607 123.07 348.924 123.07 347.241C123.07 268.716 153.28 194.859 208.12 139.302C263.06 83.6496 336.15 53 413.9 53C491.65 53 564.74 83.6496 619.68 139.302C674.52 194.868 704.73 268.726 704.73 347.251Z" fill="#1C1302"/>
<path d="M437.121 436.642H389.221L260.021 592.59H284.701L301.991 579.328C311.441 572.084 323.501 568.11 335.991 568.11H402.871V548.773H421.741V568.11H488.211C501.111 568.11 513.561 572.36 523.121 580.031L538.741 592.59H572.131L437.121 436.642ZM406.641 443.088H418.251V450.817H406.641V443.088ZM406.641 458.555H418.251V468.86H406.641V458.555ZM405.191 477.882H419.711V497.219H405.191V477.882ZM421.011 533.297H403.591V508.817H421.011V533.297Z" fill="#1B1108"/>
<path d="M412.45 202.046C437.303 202.046 457.45 182.892 457.45 159.265C457.45 135.639 437.303 116.485 412.45 116.485C387.597 116.485 367.45 135.639 367.45 159.265C367.45 182.892 387.597 202.046 412.45 202.046Z" fill="#613613"/>
<path d="M345.251 606.85C342.941 606.73 341.311 606.67 340.361 606.67C333.961 606.67 329.321 608.01 326.441 610.68C323.571 613.36 321.891 615.73 321.421 617.81C321.271 618.55 320.881 618.92 320.231 618.92C319.941 618.92 319.661 618.78 319.391 618.49C319.541 614.96 320.121 610.2 321.121 604.21C322.541 604.18 323.441 604.16 323.831 604.16C326.141 604.16 329.241 604.28 333.121 604.52C337.301 604.76 343.691 604.88 352.311 604.88C361.141 604.88 366.881 604.78 369.551 604.57C371.981 604.33 375.311 604.22 379.551 604.22C379.911 606.35 380.141 608.57 380.261 610.88C380.441 613.52 380.621 615.37 380.791 616.43C380.821 616.67 380.831 616.92 380.831 617.19C380.831 617.9 380.521 618.26 379.901 618.26C379.521 618.26 379.201 618.13 378.951 617.88C378.701 617.63 378.131 616.79 377.241 615.37C375.701 612.97 374.101 611.16 372.441 609.93C370.781 608.7 368.931 607.91 366.881 607.55C364.841 607.2 360.701 606.96 354.481 606.84C354.121 611.31 353.951 616.42 353.951 622.17C353.951 641.19 354.361 652.4 355.171 655.81C355.981 659.22 358.891 660.92 363.901 660.92C365.111 660.92 365.721 661.17 365.721 661.68C365.721 662.27 365.141 662.57 363.991 662.57H336.661C335.951 662.57 335.591 662.29 335.591 661.73C335.591 661.17 336.291 660.89 337.681 660.89C340.021 660.89 341.911 660.23 343.341 658.91C344.781 657.59 345.611 655.81 345.831 653.56C346.051 651.31 346.161 644.81 346.161 634.06C346.191 624.86 345.871 615.8 345.251 606.85Z" fill="black"/>
<path d="M431.761 632.09L432.161 619.74C432.161 614.32 431.621 610.76 430.541 609.05C429.461 607.35 427.641 606.5 425.101 606.5C423.621 606.5 422.881 606.19 422.881 605.57C422.881 605.01 423.331 604.73 424.211 604.73L437.161 605.18L448.151 604.96C449.011 604.96 449.441 605.23 449.441 605.76C449.441 606.23 449.161 606.47 448.601 606.47C446.351 606.47 444.601 606.8 443.361 607.45C442.121 608.1 441.291 609.21 440.891 610.78C440.491 612.35 440.161 616.83 439.911 624.22C439.661 631.61 439.531 636.98 439.531 640.33L439.401 651.26C439.401 654.67 439.731 656.88 440.381 657.9C441.031 658.92 442.001 659.72 443.291 660.3C444.581 660.88 445.901 661.24 447.271 661.39C448.221 661.51 448.691 661.79 448.691 662.23C448.691 662.7 448.291 662.94 447.491 662.94L433.781 662.58L424.831 662.89C423.791 662.89 423.271 662.62 423.271 662.09C423.271 661.65 423.641 661.41 424.381 661.38C426.751 661.23 428.301 660.92 429.021 660.45C429.751 659.98 430.331 659.07 430.781 657.74C431.221 656.41 431.481 654.16 431.541 650.99L431.761 634.86C429.221 634.68 426.631 634.59 424.001 634.59C412.551 634.59 405.291 634.8 402.221 635.21C401.981 640.89 401.861 645.56 401.861 649.23C401.861 653.34 401.951 655.87 402.131 656.82C402.311 657.77 402.861 658.65 403.801 659.46C404.731 660.27 406.011 660.84 407.641 661.17C408.651 661.38 409.151 661.7 409.151 662.15C409.151 662.68 408.821 662.95 408.171 662.95C407.961 662.95 407.671 662.92 407.281 662.86C405.681 662.68 402.361 662.59 397.331 662.59C391.851 662.59 388.491 662.72 387.241 662.99C386.971 663.02 386.711 663.04 386.441 663.04C385.761 663.04 385.421 662.81 385.421 662.36C385.421 661.84 385.881 661.52 386.801 661.4C389.081 661.13 390.711 660.5 391.691 659.49C392.671 658.48 393.341 654.71 393.711 648.18C394.081 641.64 394.271 633.7 394.271 624.36C394.271 616.76 393.911 611.97 393.201 609.99C392.491 608.01 390.761 606.91 388.001 606.71C387.381 606.65 387.071 606.41 387.071 605.98C387.071 605.37 387.711 605.07 388.981 605.07L406.891 604.8C408.161 604.8 408.931 604.84 409.181 604.91C409.431 604.98 409.561 605.22 409.561 605.62C409.561 606.08 409.171 606.36 408.401 606.44C405.471 606.74 403.681 607.27 403.051 608.04C402.421 608.81 402.101 613.62 402.101 622.46C402.101 623.38 402.141 626.6 402.231 632.12C405.251 632.36 408.801 632.47 412.881 632.47C418.131 632.44 424.431 632.33 431.761 632.09Z" fill="black"/>
<path d="M502.721 604.94C503.581 608.26 504.421 612.91 505.251 618.89C505.111 619.13 504.951 619.25 504.781 619.25C504.581 619.25 504.361 619.13 504.121 618.89C502.081 615.6 500.121 613.1 498.251 611.38C496.381 609.66 494.511 608.44 492.621 607.71C490.741 606.98 487.501 606.62 482.911 606.62C478.581 606.62 475.161 606.87 472.641 607.37C472.401 607.67 472.281 608.21 472.281 609.01C472.281 609.22 472.251 609.59 472.191 610.12C471.891 612.49 471.751 618.9 471.751 629.37C471.751 629.81 471.781 630.43 471.841 631.23C474.091 631.32 475.631 631.36 476.461 631.36C480.191 631.36 482.901 630.8 484.581 629.69C486.251 628.57 487.711 626.17 488.961 622.48C489.171 621.85 489.461 621.54 489.841 621.54C490.401 621.54 490.681 621.97 490.681 622.83L490.501 624.61C490.261 626.96 490.141 629.37 490.141 631.87C490.141 635.91 490.211 639.54 490.361 642.78C490.361 643.79 490.091 644.29 489.541 644.29C489.141 644.29 488.871 643.93 488.721 643.22C488.091 639.72 486.791 637.21 484.801 635.67C482.811 634.13 478.481 633.36 471.831 633.36C471.741 635.52 471.701 639.02 471.701 643.85C471.701 650.1 471.921 654.07 472.371 655.76C472.811 657.45 473.881 658.79 475.571 659.78C477.261 660.77 480.121 661.27 484.151 661.27C495.681 661.27 503.121 657.3 506.471 649.36C506.881 648.38 507.301 647.89 507.741 647.89C508.211 647.89 508.441 648.22 508.441 648.87C508.441 649.23 508.371 649.61 508.221 650.03C508.041 650.59 507.611 652.7 506.931 656.34C506.781 657.11 506.221 659.42 505.241 663.27L486.621 663.23C483.951 663.23 480.041 663.12 474.871 662.9C469.701 662.68 465.121 662.56 461.141 662.54C457.161 662.53 455.071 662.45 454.901 662.3C454.721 662.15 454.631 661.99 454.631 661.81C454.631 661.22 455.121 660.92 456.101 660.92C459.391 660.92 461.551 660.05 462.591 658.3C463.631 656.55 464.151 652.31 464.151 645.56L464.111 636.46L464.241 627.94C464.241 626.22 464.141 622.98 463.951 618.2C463.761 613.42 463.581 610.69 463.421 610.01C463.261 609.33 462.801 608.66 462.041 607.99C461.291 607.32 459.621 606.65 457.041 605.97C456.271 605.76 455.881 605.44 455.881 604.99C455.881 604.46 456.401 604.19 457.441 604.19L466.501 604.68C469.701 604.83 477.561 604.9 490.091 604.9C498.331 604.9 502.541 604.91 502.721 604.94Z" fill="black"/>
<path d="M131.42 806.21C128.4 806.33 126.67 806.39 126.24 806.39C123.96 806.39 119.83 806.28 113.85 806.07C107.87 805.85 95.4603 805.75 76.6003 805.75H53.1203C52.2603 805.75 49.1103 805.9 43.6903 806.21C38.2703 806.52 34.9703 806.67 33.8003 806.67C29.1203 806.67 26.7803 806.05 26.7803 804.82C26.7803 803.83 27.7003 803.31 29.5503 803.25C35.5203 802.88 39.6803 801.6 42.0203 799.42C44.3603 797.23 45.9603 794.09 46.8203 789.99C47.6803 785.89 48.1103 774.82 48.1103 756.77L48.2003 723.68C48.2003 712.96 47.7203 705.47 46.7703 701.22C45.8103 696.97 43.8503 693.72 40.8603 691.47C37.8703 689.22 34.5003 687.94 30.7503 687.64C28.7803 687.45 27.7903 686.79 27.7903 685.65C27.7903 684.51 28.6803 683.95 30.4703 683.95C30.9003 683.95 31.7003 683.98 32.8703 684.04C42.6603 684.66 54.1103 684.96 67.2203 684.96L83.4703 684.68C85.1303 684.68 85.9603 685.3 85.9603 686.53C85.9603 687.64 85.0703 688.19 83.2803 688.19C78.9103 688.19 75.2603 689.05 72.3403 690.78C69.4203 692.5 67.4803 694.49 66.5203 696.74C65.5703 698.99 65.0903 703.37 65.0903 709.9L64.3503 753.58L64.5303 777.96C64.5303 785.53 64.8503 790.46 65.5003 792.73C66.1503 795.01 67.4903 797.06 69.5203 798.87C71.5503 800.69 75.2503 801.59 80.6103 801.59C81.0403 801.59 86.5503 801.4 97.1503 801.04C105.59 799.87 113.16 795.75 119.88 788.67C126.59 781.59 131.06 775.25 133.27 769.65C133.94 768.05 134.77 767.25 135.75 767.25C136.79 767.25 137.31 767.99 137.31 769.47C137.31 771.19 136.43 777.36 134.67 787.98C132.93 798.6 131.84 804.68 131.42 806.21Z" fill="black"/>
<path d="M199.881 682.47H204.151C211.031 696.57 220.511 720.67 232.611 754.77C240.411 776.63 245.761 790.03 248.661 794.99C251.561 799.95 256.221 802.7 262.641 803.25C264.681 803.43 265.691 804.11 265.691 805.28C265.691 806.14 265.171 806.57 264.121 806.57L262.831 806.48C257.171 805.99 249.961 805.74 241.221 805.74C227.801 805.74 219.181 805.96 215.361 806.39C213.451 806.39 212.501 805.84 212.501 804.73C212.501 803.93 213.211 803.44 214.621 803.25C219.851 802.76 223.471 801.86 225.471 800.57C227.471 799.28 228.471 797.25 228.471 794.48C228.471 791.83 226.591 785.21 222.851 774.63L217.411 758.75C214.211 758.75 199.891 758.94 174.471 759.3C168.061 776.35 164.851 787.11 164.851 791.56C164.851 795.33 166.431 798.13 169.611 799.96C172.781 801.78 175.901 802.79 178.981 802.98C181.261 803.16 182.401 803.85 182.401 805.05C182.401 805.53 182.031 805.98 181.291 806.4C171.441 805.97 165.501 805.75 163.471 805.75C153.131 805.75 146.171 805.87 142.601 806.12C140.631 806.12 139.641 805.57 139.641 804.46C139.641 803.48 140.501 802.86 142.231 802.61C149.311 801.69 154.731 796.88 158.481 788.2C162.231 779.52 168.091 763.91 176.041 741.38C183.301 720.89 191.251 701.25 199.881 682.47ZM196.201 702.6C190.471 714.3 183.781 731.29 176.131 753.57C182.471 753.26 187.031 753.11 189.801 753.11L215.751 753.57C213.471 747.17 210.281 738.67 206.161 728.08C201.111 715.47 197.801 706.98 196.201 702.6Z" fill="black"/>
<path d="M312.691 684.97L331.711 684.6C355.781 684.6 373.971 690.45 386.281 702.15C398.591 713.85 404.751 728.59 404.751 746.38C404.751 759 401.801 769.97 395.891 779.3C389.981 788.63 382.591 795.66 373.731 800.4C364.871 805.14 353.051 807.51 338.271 807.51C334.951 807.51 330.731 807.32 325.621 806.96C316.511 806.22 311.401 805.85 310.291 805.85C290.101 805.85 278.211 806.07 274.651 806.5C272.621 806.5 271.601 805.99 271.601 804.95C271.601 804.23 271.971 803.75 272.711 803.51C273.451 803.27 275.731 802.91 279.541 802.43C284.461 801.75 287.931 799.78 289.931 796.52C291.931 793.26 293.181 783.09 293.671 766.02L295.151 717.13C295.151 711.46 294.771 705.99 294.001 700.73C293.231 695.46 292.031 692.07 290.401 690.56C288.771 689.05 286.171 688.02 282.601 687.46C280.011 687.09 278.721 686.38 278.721 685.33C278.721 684.04 279.371 683.39 280.661 683.39C281.891 683.39 285.661 683.65 291.971 684.18C298.271 684.71 305.181 684.97 312.691 684.97ZM309.461 774.17C309.461 782.3 310.001 788.1 311.081 791.58C312.161 795.06 314.471 797.92 318.011 800.17C321.551 802.42 327.231 803.54 335.051 803.54C346.251 803.54 355.331 800.89 362.291 795.6C369.251 790.31 374.681 783.26 378.591 774.45C382.501 765.65 384.451 756.29 384.451 746.38C384.451 731.73 379.991 718.46 371.061 706.58C362.131 694.7 348.251 688.76 329.411 688.76C321.041 688.76 316.161 689.04 314.771 689.59C313.391 690.14 312.691 691.78 312.691 694.48C312.691 696.88 312.471 701.16 312.041 707.32C311.421 716.31 311.021 723.33 310.841 728.37L310.011 753.76C309.641 765.65 309.461 772.45 309.461 774.17Z" fill="black"/>
<path d="M465.181 682.47H469.451C476.331 696.57 485.811 720.67 497.911 754.77C505.711 776.63 511.061 790.03 513.961 794.99C516.861 799.95 521.521 802.7 527.941 803.25C529.981 803.43 530.991 804.11 530.991 805.28C530.991 806.14 530.471 806.57 529.421 806.57L528.131 806.48C522.471 805.99 515.261 805.74 506.521 805.74C493.101 805.74 484.481 805.96 480.661 806.39C478.751 806.39 477.801 805.84 477.801 804.73C477.801 803.93 478.511 803.44 479.921 803.25C485.151 802.76 488.771 801.86 490.771 800.57C492.771 799.28 493.771 797.25 493.771 794.48C493.771 791.83 491.891 785.21 488.151 774.63L482.711 758.75C479.511 758.75 465.191 758.94 439.771 759.3C433.361 776.35 430.151 787.11 430.151 791.56C430.151 795.33 431.731 798.13 434.901 799.96C438.071 801.78 441.191 802.79 444.271 802.98C446.551 803.16 447.691 803.85 447.691 805.05C447.691 805.53 447.321 805.98 446.581 806.4C436.731 805.97 430.791 805.75 428.761 805.75C418.421 805.75 411.461 805.87 407.891 806.12C405.921 806.12 404.931 805.57 404.931 804.46C404.931 803.48 405.791 802.86 407.521 802.61C414.601 801.69 420.021 796.88 423.771 788.2C427.521 779.52 433.381 763.91 441.331 741.38C448.611 720.89 456.551 701.25 465.181 682.47ZM461.501 702.6C455.771 714.3 449.081 731.29 441.431 753.57C447.771 753.26 452.331 753.11 455.101 753.11L481.051 753.57C478.771 747.17 475.581 738.67 471.461 728.08C466.421 715.47 463.101 706.98 461.501 702.6Z" fill="black"/>
<path d="M575.04 744.25C581.01 740.25 585.72 736.45 589.17 732.85C592.62 729.25 598.02 723.48 605.38 715.54C612.74 707.6 617.14 702.32 618.58 699.7C620.03 697.08 620.75 695.19 620.75 694.02C620.75 692.6 619.93 691.33 618.3 690.19C616.67 689.05 614.74 688.3 612.53 687.93C610.07 687.56 608.84 686.85 608.84 685.81C608.84 684.7 609.86 684.15 611.89 684.15C612.32 684.15 613 684.12 613.92 684.06C616.2 683.94 623.03 683.88 634.42 683.88C642.24 683.88 647.69 683.96 650.76 684.11C653.84 684.26 655.38 684.83 655.38 685.82C655.38 686.87 654.52 687.51 652.79 687.76C647.07 688.56 642.09 690.11 637.88 692.42C633.66 694.73 627.12 700.15 618.26 708.67C609.39 717.2 601.76 725.46 595.36 733.47C602.48 733.47 608.47 734.47 613.32 736.48C618.17 738.48 622.21 741.94 625.43 746.84C628.65 751.74 631.43 760.05 633.77 771.76C637.85 791.43 645.14 801.69 655.64 802.55C657.99 802.73 659.16 803.36 659.16 804.44C659.16 805.34 658.61 805.79 657.5 805.79L649 805.61C636.44 805.61 629.24 805.73 627.39 805.97C624.37 801.97 622.42 798.03 621.53 794.15C620.64 790.27 619.42 783.47 617.88 773.74C616.53 765.24 614.29 757.4 611.19 750.19C608.08 742.99 603.23 739.39 596.65 739.39C592.28 739.39 587.75 740.82 583.07 743.68C578.39 746.54 575.68 748.67 574.94 750.05C574.2 751.43 573.83 759.58 573.83 774.47C573.83 784.94 574.15 791.4 574.8 793.86C575.45 796.32 576.86 798.26 579.05 799.68C581.23 801.1 584.17 801.99 587.87 802.36C590.09 802.61 591.19 803.28 591.19 804.39C591.19 805.44 590.42 805.96 588.88 805.96L587.77 805.9C586.05 805.82 579.77 805.78 568.93 805.78C555.88 805.78 548.49 805.9 546.77 806.15C545.91 806.27 545.26 806.33 544.83 806.33C543.41 806.33 542.71 805.78 542.71 804.67C542.71 803.69 543.57 803.07 545.3 802.82C548.56 802.39 551.01 801.48 552.64 800.1C554.27 798.72 555.32 797.11 555.78 795.3C556.24 793.48 556.86 787.4 557.63 777.06C558.4 766.72 558.78 758.1 558.78 751.2C558.78 742.09 558.69 734.36 558.5 728.02C558.31 721.68 557.95 714.77 557.39 707.29C556.84 699.81 556.22 695.32 555.54 693.81C554.86 692.3 553.91 691.13 552.68 690.3C551.45 689.47 548.55 688.78 544 688.22C542.46 688.03 541.69 687.48 541.69 686.56C541.69 685.21 543.11 684.53 545.94 684.53L553.42 684.44L586.2 684.07C587.86 684.07 588.69 684.58 588.69 685.61C588.69 686.21 588.41 686.64 587.86 686.92C587.31 687.19 585.61 687.5 582.78 687.86C579.89 688.23 578.07 688.58 577.33 688.92C576.59 689.26 575.85 690.06 575.11 691.32C574.37 692.58 574 694.66 574 697.55C574.02 704.48 574.36 720.06 575.04 744.25Z" fill="black"/>
<path d="M764.25 742.401L765.08 716.73C765.08 705.46 763.96 698.061 761.71 694.521C759.46 690.981 755.69 689.211 750.4 689.211C747.32 689.211 745.78 688.561 745.78 687.271C745.78 686.101 746.7 685.521 748.55 685.521L775.47 686.44L798.32 685.98C800.11 685.98 801 686.531 801 687.641C801 688.631 800.41 689.12 799.25 689.12C794.57 689.12 790.94 689.801 788.35 691.151C785.76 692.511 784.06 694.811 783.23 698.081C782.4 701.341 781.72 710.65 781.2 726.01C780.68 741.37 780.42 752.53 780.42 759.48L780.14 782.201C780.14 789.281 780.82 793.88 782.17 796.01C783.52 798.13 785.54 799.79 788.22 801C790.9 802.2 793.65 802.95 796.48 803.26C798.45 803.51 799.44 804.091 799.44 805.021C799.44 806.001 798.61 806.5 796.94 806.5L768.45 805.76L749.86 806.41C747.7 806.41 746.62 805.86 746.62 804.75C746.62 803.83 747.39 803.341 748.93 803.271C753.85 802.961 757.07 802.321 758.58 801.331C760.09 800.351 761.3 798.471 762.23 795.701C763.15 792.931 763.68 788.25 763.8 781.66L764.26 748.141C758.97 747.771 753.59 747.591 748.12 747.591C724.33 747.591 709.24 748.02 702.85 748.88C702.36 760.68 702.11 770.39 702.11 778.01C702.11 786.55 702.3 791.811 702.66 793.781C703.03 795.751 704.18 797.57 706.12 799.26C708.06 800.95 710.72 802.13 714.11 802.81C716.2 803.24 717.25 803.921 717.25 804.841C717.25 805.951 716.57 806.5 715.22 806.5C714.79 806.5 714.17 806.44 713.37 806.32C710.05 805.95 703.15 805.771 692.68 805.771C681.29 805.771 674.3 806.041 671.72 806.591C671.17 806.661 670.61 806.69 670.06 806.69C668.64 806.69 667.94 806.221 667.94 805.271C667.94 804.201 668.89 803.531 670.8 803.281C675.54 802.731 678.93 801.41 680.96 799.32C682.99 797.23 684.39 789.39 685.16 775.81C685.93 762.23 686.31 745.72 686.31 726.3C686.31 710.5 685.57 700.55 684.09 696.43C682.61 692.31 679.01 690.04 673.29 689.61C672 689.48 671.35 688.981 671.35 688.091C671.35 686.831 672.67 686.19 675.32 686.19L712.53 685.641C715.18 685.641 716.76 685.72 717.29 685.87C717.81 686.02 718.08 686.52 718.08 687.35C718.08 688.31 717.28 688.88 715.68 689.06C709.59 689.68 705.88 690.791 704.55 692.391C703.22 693.991 702.56 703.98 702.56 722.36C702.56 724.27 702.65 730.96 702.84 742.43C709.11 742.92 716.48 743.17 724.97 743.17C735.91 743.14 749 742.901 764.25 742.401Z" fill="black"/>
<path d="M248.54 831.97H250.72C254.23 839.17 259.07 851.47 265.25 868.89C269.23 880.05 271.96 886.89 273.44 889.42C274.92 891.95 277.3 893.36 280.58 893.64C281.62 893.73 282.14 894.08 282.14 894.68C282.14 895.12 281.87 895.34 281.34 895.34L280.68 895.29C277.79 895.04 274.11 894.91 269.65 894.91C262.8 894.91 258.4 895.02 256.45 895.24C255.48 895.24 254.99 894.96 254.99 894.39C254.99 893.98 255.35 893.73 256.07 893.64C258.74 893.39 260.59 892.93 261.61 892.27C262.63 891.61 263.14 890.57 263.14 889.16C263.14 887.81 262.18 884.43 260.27 879.02L257.49 870.91C255.86 870.91 248.55 871 235.57 871.19C232.3 879.9 230.66 885.39 230.66 887.66C230.66 889.59 231.47 891.02 233.09 891.95C234.71 892.88 236.3 893.4 237.88 893.49C239.04 893.58 239.62 893.94 239.62 894.55C239.62 894.8 239.43 895.02 239.05 895.24C234.02 895.02 230.99 894.91 229.95 894.91C224.67 894.91 221.12 894.97 219.3 895.1C218.29 895.1 217.79 894.82 217.79 894.25C217.79 893.75 218.23 893.43 219.11 893.31C222.72 892.84 225.49 890.39 227.41 885.96C229.33 881.53 232.31 873.56 236.37 862.06C240.07 851.58 244.13 841.56 248.54 831.97ZM246.66 842.25C243.73 848.22 240.32 856.9 236.41 868.27C239.65 868.11 241.97 868.03 243.39 868.03L256.64 868.27C255.48 865 253.85 860.66 251.74 855.26C249.17 848.82 247.47 844.48 246.66 842.25Z" fill="black"/>
<path d="M307.97 895.95H305.19C303.71 891.2 301.39 884.73 298.21 876.52L289.3 853.56C286.53 846.46 284.61 842.02 283.52 840.26C282.44 838.5 281.38 837.31 280.34 836.68C279.3 836.05 277.84 835.66 275.96 835.5C275.17 835.44 274.78 835.15 274.78 834.65C274.78 834.05 275.17 833.76 275.96 833.76H300.66C302.2 833.76 302.97 834.03 302.97 834.56C302.97 835.25 302.47 835.6 301.46 835.6C297.31 835.6 295.24 837.38 295.24 840.93C295.24 841.78 295.43 843.13 295.81 844.98C296.19 846.83 296.84 849.11 297.77 851.82C298.7 854.52 300.69 860.06 303.76 868.44C306.82 876.82 308.78 881.96 309.63 883.88L319.72 855.92C322.61 848 324.06 843.02 324.06 840.97C324.06 837.67 322.02 835.85 317.93 835.5C317.11 835.44 316.7 835.14 316.7 834.6C316.7 834.25 316.85 834.03 317.15 833.92C317.45 833.81 318.32 833.76 319.77 833.76H335.52C336.93 833.76 337.79 833.8 338.09 833.88C338.39 833.96 338.54 834.19 338.54 834.56C338.54 835.13 337.93 835.5 336.7 835.69C334.34 836.04 332.57 836.89 331.4 838.26C330.22 839.63 329.09 841.26 328.01 843.16C326.93 845.06 324.03 852.63 319.31 865.86C317.62 870.52 313.85 880.55 307.97 895.95Z" fill="black"/>
<path d="M392.88 833.76C393.79 837.28 394.69 842.21 395.57 848.56C395.42 848.81 395.25 848.94 395.07 848.94C394.86 848.94 394.62 848.81 394.37 848.56C392.2 845.07 390.12 842.41 388.14 840.59C386.16 838.77 384.17 837.47 382.17 836.7C380.17 835.93 376.74 835.54 371.86 835.54C367.27 835.54 363.63 835.81 360.96 836.34C360.71 836.65 360.58 837.23 360.58 838.08C360.58 838.3 360.55 838.69 360.49 839.26C360.18 841.77 360.02 848.58 360.02 859.68C360.02 860.15 360.05 860.81 360.11 861.66C362.5 861.75 364.14 861.8 365.02 861.8C368.98 861.8 371.85 861.21 373.63 860.03C375.41 858.85 376.96 856.3 378.28 852.38C378.5 851.72 378.81 851.38 379.22 851.38C379.81 851.38 380.11 851.84 380.11 852.75L379.92 854.64C379.67 857.13 379.54 859.7 379.54 862.34C379.54 866.62 379.62 870.48 379.78 873.91C379.78 874.98 379.49 875.52 378.91 875.52C378.49 875.52 378.2 875.14 378.05 874.39C377.39 870.68 376 868.01 373.89 866.37C371.78 864.74 367.19 863.92 360.12 863.92C360.02 866.21 359.98 869.92 359.98 875.05C359.98 881.68 360.22 885.89 360.69 887.69C361.16 889.48 362.29 890.9 364.09 891.96C365.88 893.01 368.92 893.54 373.2 893.54C385.43 893.54 393.33 889.33 396.88 880.9C397.31 879.86 397.77 879.34 398.23 879.34C398.73 879.34 398.98 879.69 398.98 880.38C398.98 880.76 398.9 881.17 398.74 881.6C398.55 882.2 398.09 884.43 397.37 888.3C397.21 889.12 396.62 891.57 395.58 895.65L375.83 895.6C373 895.6 368.84 895.48 363.36 895.25C357.87 895.01 353.02 894.89 348.79 894.87C344.56 894.85 342.35 894.77 342.17 894.61C341.98 894.45 341.89 894.28 341.89 894.09C341.89 893.46 342.41 893.15 343.45 893.15C346.94 893.15 349.23 892.22 350.33 890.37C351.43 888.52 351.98 884.01 351.98 876.85L351.93 867.19L352.07 858.15C352.07 856.33 351.97 852.88 351.76 847.81C351.56 842.74 351.37 839.84 351.19 839.12C351.02 838.4 350.53 837.68 349.73 836.98C348.93 836.27 347.16 835.56 344.43 834.84C343.61 834.62 343.2 834.27 343.2 833.8C343.2 833.23 343.75 832.95 344.85 832.95L354.47 833.47C357.86 833.63 366.21 833.71 379.5 833.71C388.23 833.72 392.69 833.73 392.88 833.76Z" fill="black"/>
<path d="M419.71 833.53C421.6 836.08 424.86 840.02 429.52 845.36L444.61 862.85L459.13 879.63C459.44 873.94 459.6 866.56 459.6 857.47C459.6 850.65 459.46 846.09 459.17 843.77C458.89 841.46 457.84 839.52 456.03 837.95C454.22 836.38 451.97 835.59 449.27 835.59C448.01 835.59 447.38 835.32 447.38 834.79C447.38 834.48 447.51 834.25 447.78 834.11C448.05 833.97 450.16 833.83 454.12 833.69C458.08 833.55 461.41 833.48 464.11 833.48L470.48 833.53H471.52C472.49 833.53 472.98 833.81 472.98 834.36C472.98 834.85 472.56 835.14 471.71 835.23C468.53 835.58 466.25 836.4 464.85 837.71C463.45 839.02 462.62 840.9 462.35 843.35C462.08 845.8 461.95 854.06 461.95 868.12L461.49 893.03C461.49 894.29 461.18 894.92 460.56 894.92C460.4 894.92 460.18 894.85 459.91 894.71C459.64 894.57 458.23 892.98 455.68 889.95C453.13 886.92 450 883.28 446.28 879.04C442.55 874.8 439.62 871.36 437.49 868.72C432.81 863.03 429.85 859.53 428.63 858.21C424.07 853.37 421.38 850.26 420.57 848.88C420.03 847.94 419.55 847.47 419.11 847.47C418.76 847.47 418.59 848.08 418.59 849.31L418.68 856.62C418.68 865.89 418.93 873.3 419.43 878.83C419.93 884.36 420.46 887.61 421.01 888.57C421.56 889.53 422.52 890.5 423.89 891.47C425.26 892.44 426.71 892.93 428.25 892.93C430.32 892.93 431.36 893.31 431.36 894.06C431.36 894.63 430.78 894.91 429.62 894.91L406.94 894.86C405.87 894.86 405.34 894.59 405.34 894.06C405.34 893.43 405.86 893.12 406.9 893.12C410.77 893.12 413.34 892.26 414.63 890.55C415.92 888.84 416.56 885.2 416.56 879.64L416.17 863.09C416.18 853.31 415.91 847.55 415.38 845.81C414.84 844.06 413.64 841.94 411.77 839.44C409.9 836.94 407.77 835.53 405.38 835.22C404.31 835.1 403.78 834.81 403.78 834.37C403.78 833.77 404.47 833.47 405.85 833.47L419.71 833.53Z" fill="black"/>
<path d="M479.82 833.2H503.44C504.79 833.2 505.47 833.48 505.47 834.05C505.47 834.62 504.97 834.95 503.96 835.04C501.73 835.26 500.08 835.87 499.01 836.88C497.94 837.89 497.13 839.66 496.58 842.21C496.03 844.76 495.75 850.21 495.75 858.57C495.75 868.6 496.04 875.54 496.62 879.41C497.2 883.28 499.02 886.35 502.09 888.63C505.15 890.91 509.33 892.05 514.61 892.05C520.14 892.05 524.35 891 527.25 888.89C530.14 886.78 532.02 883.66 532.88 879.51C533.74 875.36 534.18 866.36 534.18 852.49C534.18 845.36 533.44 840.68 531.96 838.46C530.48 836.24 528.3 835.14 525.41 835.14C524.25 835.14 523.66 834.81 523.66 834.15C523.66 833.52 524.43 833.21 525.97 833.21H544.83C545.68 833.21 546.1 833.52 546.1 834.15C546.1 834.59 545.75 834.86 545.06 834.95C542.67 835.3 540.92 836.05 539.8 837.21C538.68 838.37 537.95 840.48 537.61 843.53C537.26 846.58 537.09 851.06 537.09 856.97C537.09 864.36 536.81 870.63 536.26 875.78C535.71 880.94 534.52 884.78 532.7 887.31C530.88 889.84 528.13 891.88 524.47 893.44C520.81 895 516.31 895.77 510.96 895.77C505.49 895.77 500.83 894.9 496.98 893.15C493.13 891.4 490.52 889.09 489.15 886.22C487.78 883.34 487.1 879.04 487.1 873.31L487.29 860.24C487.29 848.63 486.8 841.53 485.81 838.94C484.82 836.35 482.69 835.02 479.42 834.95C478.35 834.95 477.82 834.69 477.82 834.17C477.84 833.52 478.5 833.2 479.82 833.2Z" fill="black"/>
<path d="M602.07 833.76C602.98 837.28 603.88 842.21 604.76 848.56C604.61 848.81 604.44 848.94 604.26 848.94C604.04 848.94 603.81 848.81 603.56 848.56C601.39 845.07 599.31 842.41 597.33 840.59C595.35 838.77 593.36 837.47 591.36 836.7C589.36 835.93 585.93 835.54 581.05 835.54C576.46 835.54 572.83 835.81 570.15 836.34C569.9 836.65 569.77 837.23 569.77 838.08C569.77 838.3 569.74 838.69 569.68 839.26C569.37 841.77 569.21 848.58 569.21 859.68C569.21 860.15 569.24 860.81 569.3 861.66C571.69 861.75 573.33 861.8 574.21 861.8C578.17 861.8 581.04 861.21 582.82 860.03C584.6 858.85 586.15 856.3 587.47 852.38C587.69 851.72 588 851.38 588.41 851.38C589 851.38 589.3 851.84 589.3 852.75L589.11 854.64C588.86 857.13 588.73 859.7 588.73 862.34C588.73 866.62 588.81 870.48 588.97 873.91C588.97 874.98 588.68 875.52 588.11 875.52C587.68 875.52 587.4 875.14 587.25 874.39C586.59 870.68 585.2 868.01 583.09 866.37C580.98 864.74 576.39 863.92 569.32 863.92C569.23 866.21 569.18 869.92 569.18 875.05C569.18 881.68 569.42 885.89 569.89 887.69C570.36 889.48 571.49 890.9 573.29 891.96C575.08 893.01 578.12 893.54 582.4 893.54C594.64 893.54 602.53 889.33 606.08 880.9C606.51 879.86 606.96 879.34 607.43 879.34C607.93 879.34 608.18 879.69 608.18 880.38C608.18 880.76 608.1 881.17 607.94 881.6C607.75 882.2 607.3 884.43 606.57 888.3C606.41 889.12 605.82 891.57 604.78 895.65L585 895.62C582.17 895.62 578.01 895.5 572.53 895.27C567.05 895.03 562.19 894.91 557.96 894.89C553.73 894.87 551.52 894.79 551.34 894.63C551.15 894.47 551.06 894.3 551.06 894.11C551.06 893.48 551.58 893.17 552.62 893.17C556.11 893.17 558.4 892.24 559.5 890.39C560.6 888.54 561.15 884.03 561.15 876.87L561.1 867.21L561.24 858.17C561.24 856.35 561.14 852.9 560.93 847.83C560.73 842.76 560.54 839.86 560.36 839.14C560.19 838.42 559.7 837.7 558.9 837C558.1 836.29 556.33 835.58 553.6 834.86C552.78 834.64 552.38 834.29 552.38 833.82C552.38 833.25 552.93 832.97 554.03 832.97L563.65 833.49C567.05 833.65 575.39 833.73 588.68 833.73C597.42 833.72 601.88 833.73 602.07 833.76Z" fill="black"/>
<path d="M248.12 952.88H264.74V956.62H243.36V921.49H248.11V952.88H248.12Z" fill="black"/>
<path d="M295.151 921.49V945.3C295.151 949.13 293.911 952.05 291.421 954.08C288.931 956.11 285.691 957.12 281.691 957.12C277.831 957.12 274.701 956.1 272.291 954.07C269.891 952.03 268.681 949.11 268.681 945.3V921.49H273.431V945.28C273.431 947.93 274.191 949.94 275.701 951.32C277.211 952.7 279.211 953.38 281.681 953.38C284.291 953.38 286.391 952.69 287.991 951.32C289.591 949.95 290.391 947.93 290.391 945.28V921.49H295.151Z" fill="black"/>
<path d="M314.25 935.19L322.45 921.49H328.19L317.04 938.91L328.43 956.62H322.76L314.34 942.68L305.9 956.62H300.16L311.55 938.91L300.4 921.49H306.09L314.25 935.19Z" fill="black"/>
<path d="M359.83 921.49V945.3C359.83 949.13 358.59 952.05 356.1 954.08C353.61 956.11 350.37 957.12 346.37 957.12C342.51 957.12 339.38 956.1 336.97 954.07C334.57 952.03 333.36 949.11 333.36 945.3V921.49H338.11V945.28C338.11 947.93 338.87 949.94 340.38 951.32C341.89 952.7 343.89 953.38 346.36 953.38C348.97 953.38 351.07 952.69 352.67 951.32C354.27 949.95 355.07 947.93 355.07 945.28V921.49H359.83Z" fill="black"/>
<path d="M372.351 941.39V956.61H367.601V921.51H380.311C384.151 921.51 387.091 922.36 389.121 924.07C391.151 925.78 392.161 928.25 392.161 931.5C392.161 933.3 391.691 934.87 390.751 936.2C389.811 937.54 388.441 938.6 386.641 939.39C388.571 940.02 389.961 941.03 390.801 942.44C391.641 943.85 392.071 945.59 392.071 947.66V950.97C392.071 952.06 392.191 953.04 392.431 953.91C392.671 954.78 393.091 955.49 393.681 956.03V956.61H388.781C388.151 956.06 387.751 955.26 387.571 954.2C387.391 953.14 387.301 952.05 387.301 950.92V947.71C387.301 945.81 386.751 944.28 385.641 943.13C384.531 941.97 383.041 941.39 381.181 941.39H372.351ZM372.351 937.65H379.831C382.521 937.65 384.451 937.14 385.631 936.12C386.811 935.1 387.401 933.55 387.401 931.46C387.401 929.49 386.831 927.96 385.681 926.87C384.531 925.79 382.741 925.25 380.311 925.25H372.351V937.65Z" fill="black"/>
<path d="M409.91 939.34L419.08 921.49H424.51L412.18 944.26V956.61H407.45V943.94L395.32 921.48H400.75L409.91 939.34Z" fill="black"/>
<path d="M468.18 956.62H463.43V941.11H446.37V956.62H441.62V921.49H446.37V937.36H463.43V921.49H468.18V956.62Z" fill="black"/>
<path d="M503.45 942.19C503.45 946.48 502.12 950.05 499.46 952.88C496.8 955.71 493.34 957.13 489.1 957.13C485 957.13 481.66 955.72 479.1 952.88C476.53 950.05 475.25 946.49 475.25 942.19V935.94C475.25 931.66 476.53 928.1 479.1 925.25C481.66 922.4 485 920.98 489.1 920.98C493.35 920.98 496.8 922.4 499.46 925.24C502.12 928.08 503.45 931.65 503.45 935.94V942.19ZM498.69 935.89C498.69 932.67 497.82 930.04 496.08 927.98C494.34 925.92 492.01 924.89 489.08 924.89C486.31 924.89 484.11 925.92 482.46 927.98C480.81 930.04 479.99 932.68 479.99 935.89V942.19C479.99 945.44 480.81 948.09 482.46 950.15C484.11 952.21 486.32 953.24 489.08 953.24C492.02 953.24 494.36 952.22 496.09 950.17C497.82 948.12 498.68 945.46 498.68 942.2V935.89H498.69Z" fill="black"/>
<path d="M533.68 925.23H522.39V956.62H517.64V925.23H506.37V921.49H533.68V925.23Z" fill="black"/>
<path d="M559.68 940.33H543.59V952.88H562.14V956.62H538.83V921.49H561.87V925.23H543.58V936.59H559.67V940.33H559.68Z" fill="black"/>
<path d="M572.47 952.88H589.09V956.62H567.71V921.49H572.46V952.88H572.47Z" fill="black"/>
<path d="M182.84 864.77H68.1602V870.58H182.84V864.77Z" fill="#764826"/>
<path d="M762.76 865.49H648.08V871.3H762.76V865.49Z" fill="#764826"/>
<path d="M218.401 938.07H103.721V940.97H218.401V938.07Z" fill="#764826"/>
<path d="M722.12 938.07H607.44V940.97H722.12V938.07Z" fill="#764826"/>
<defs>
<linearGradient id="paint0_linear_278_304" x1="236.249" y1="319.932" x2="145.184" y2="381.37" gradientUnits="userSpaceOnUse">
<stop stop-color="#E8C9AC"/>
<stop offset="0.2604" stop-color="#E9CCB1"/>
<stop offset="0.5801" stop-color="#ECD5C0"/>
<stop offset="0.9297" stop-color="#F0E4D9"/>
<stop offset="1" stop-color="#F1E8DF"/>
</linearGradient>
<linearGradient id="paint1_linear_278_304" x1="640.656" y1="366.155" x2="456.818" y2="393.781" gradientUnits="userSpaceOnUse">
<stop stop-color="#764826"/>
<stop offset="0.3585" stop-color="#774B2A"/>
<stop offset="0.7012" stop-color="#7A5535"/>
<stop offset="1" stop-color="#7F6446"/>
</linearGradient>
<linearGradient id="paint2_linear_278_304" x1="611.719" y1="328.722" x2="477.552" y2="324.863" gradientUnits="userSpaceOnUse">
<stop stop-color="#E8C9AC"/>
<stop offset="0.2604" stop-color="#E9CCB1"/>
<stop offset="0.5801" stop-color="#ECD5C0"/>
<stop offset="0.9297" stop-color="#F0E4D9"/>
<stop offset="1" stop-color="#F1E8DF"/>
</linearGradient>
<linearGradient id="paint3_linear_278_304" x1="297.896" y1="331.031" x2="145.536" y2="421.286" gradientUnits="userSpaceOnUse">
<stop stop-color="#764826"/>
<stop offset="0.3585" stop-color="#774B2A"/>
<stop offset="0.7012" stop-color="#7A5535"/>
<stop offset="1" stop-color="#7F6446"/>
</linearGradient>
<linearGradient id="paint4_linear_278_304" x1="580.367" y1="424.587" x2="506.127" y2="368.806" gradientUnits="userSpaceOnUse">
<stop stop-color="#764826"/>
<stop offset="0.3585" stop-color="#774B2A"/>
<stop offset="0.7012" stop-color="#7A5535"/>
<stop offset="1" stop-color="#7F6446"/>
</linearGradient>
<linearGradient id="paint5_linear_278_304" x1="466.532" y1="371.714" x2="371.82" y2="445.981" gradientUnits="userSpaceOnUse">
<stop stop-color="#764826"/>
<stop offset="0.3585" stop-color="#774B2A"/>
<stop offset="0.7012" stop-color="#7A5535"/>
<stop offset="1" stop-color="#7F6446"/>
</linearGradient>
<linearGradient id="paint6_linear_278_304" x1="339.481" y1="417.294" x2="308.641" y2="272.66" gradientUnits="userSpaceOnUse">
<stop stop-color="#E8C9AC"/>
<stop offset="0.2604" stop-color="#E9CCB1"/>
<stop offset="0.5801" stop-color="#ECD5C0"/>
<stop offset="0.9297" stop-color="#F0E4D9"/>
<stop offset="1" stop-color="#F1E8DF"/>
</linearGradient>
<linearGradient id="paint7_linear_278_304" x1="338.446" y1="479.11" x2="195.015" y2="412.997" gradientUnits="userSpaceOnUse">
<stop stop-color="#764826"/>
<stop offset="0.3585" stop-color="#774B2A"/>
<stop offset="0.7012" stop-color="#7A5535"/>
<stop offset="1" stop-color="#7F6446"/>
</linearGradient>
<linearGradient id="paint8_linear_278_304" x1="290.347" y1="508.975" x2="211.261" y2="449.079" gradientUnits="userSpaceOnUse">
<stop stop-color="#764826"/>
<stop offset="0.3585" stop-color="#774B2A"/>
<stop offset="0.7012" stop-color="#7A5535"/>
<stop offset="1" stop-color="#7F6446"/>
</linearGradient>
<linearGradient id="paint9_linear_278_304" x1="246.786" y1="556.981" x2="246.786" y2="512.427" gradientUnits="userSpaceOnUse">
<stop stop-color="#764826"/>
<stop offset="0.3585" stop-color="#774B2A"/>
<stop offset="0.7012" stop-color="#7A5535"/>
<stop offset="1" stop-color="#7F6446"/>
</linearGradient>
<linearGradient id="paint10_linear_278_304" x1="487.276" y1="485.296" x2="727.255" y2="359.502" gradientUnits="userSpaceOnUse">
<stop stop-color="#764826"/>
<stop offset="0.3585" stop-color="#774B2A"/>
<stop offset="0.7012" stop-color="#7A5535"/>
<stop offset="1" stop-color="#7F6446"/>
</linearGradient>
<linearGradient id="paint11_linear_278_304" x1="555.737" y1="493.973" x2="689.274" y2="428.816" gradientUnits="userSpaceOnUse">
<stop stop-color="#764826"/>
<stop offset="0.3585" stop-color="#774B2A"/>
<stop offset="0.7012" stop-color="#7A5535"/>
<stop offset="1" stop-color="#7F6446"/>
</linearGradient>
<linearGradient id="paint12_linear_278_304" x1="517.501" y1="585.46" x2="614.397" y2="475.381" gradientUnits="userSpaceOnUse">
<stop stop-color="#764826"/>
<stop offset="0.3585" stop-color="#774B2A"/>
<stop offset="0.7012" stop-color="#7A5535"/>
<stop offset="1" stop-color="#7F6446"/>
</linearGradient>
</defs>
</svg>
