<svg width="806" height="1000" viewBox="0 0 806 1000" fill="none" xmlns="http://www.w3.org/2000/svg">
<path d="M332.424 570.894C330.102 570.749 328.506 570.749 327.49 570.749C321.104 570.749 316.46 572.051 313.557 574.8C310.654 577.405 309.058 579.864 308.477 581.89C308.332 582.613 307.897 583.047 307.316 583.047C307.026 583.047 306.736 582.902 306.445 582.613C306.59 579.141 307.171 574.366 308.187 568.435C309.638 568.435 310.509 568.435 310.944 568.435C313.267 568.435 316.314 568.579 320.233 568.869C324.442 569.158 330.828 569.303 339.391 569.303C348.244 569.303 353.904 569.158 356.662 569.013C359.129 568.724 362.467 568.724 366.676 568.724C366.966 570.894 367.256 573.064 367.402 575.379C367.547 577.983 367.692 579.864 367.982 580.877C367.982 581.166 367.982 581.311 367.982 581.6C367.982 582.324 367.692 582.613 367.111 582.613C366.676 582.613 366.386 582.468 366.241 582.179C365.95 581.89 365.37 581.021 364.499 579.719C362.902 577.26 361.306 575.524 359.709 574.222C358.113 573.064 356.226 572.196 354.194 571.907C352.163 571.617 347.954 571.328 341.858 571.183C341.423 575.668 341.277 580.732 341.277 586.519C341.277 605.472 341.713 616.612 342.439 620.084C343.164 623.557 346.212 625.148 351.147 625.148C352.308 625.148 353.033 625.437 353.033 625.871C353.033 626.45 352.453 626.74 351.292 626.74H324.007C323.281 626.74 322.991 626.45 322.991 625.871C322.991 625.293 323.716 625.003 325.022 625.003C327.345 625.003 329.231 624.28 330.683 622.978C332.134 621.676 333.005 619.94 333.15 617.625C333.295 615.31 333.44 608.944 333.44 598.238C333.44 588.834 333.005 579.864 332.424 570.894Z" fill="white"/>
<path d="M418.924 596.067L419.36 583.77C419.36 578.417 418.779 574.8 417.763 573.064C416.747 571.327 414.86 570.459 412.248 570.459C410.797 570.459 410.071 570.17 410.071 569.591C410.071 569.013 410.506 568.723 411.377 568.723L424.294 569.157L435.324 568.868C436.195 568.868 436.631 569.157 436.631 569.591C436.631 570.025 436.34 570.315 435.76 570.315C433.583 570.315 431.696 570.604 430.535 571.328C429.374 572.051 428.503 573.064 428.068 574.655C427.632 576.247 427.342 580.732 427.052 588.11C426.761 595.489 426.616 600.842 426.616 604.169L426.471 615.02C426.471 618.348 426.761 620.662 427.487 621.675C428.213 622.688 429.084 623.556 430.39 624.135C431.696 624.713 433.002 625.147 434.308 625.292C435.179 625.437 435.76 625.726 435.76 626.16C435.76 626.594 435.324 626.884 434.599 626.884L420.956 626.45L411.958 626.739C410.942 626.739 410.361 626.45 410.361 626.016C410.361 625.582 410.797 625.292 411.522 625.292C413.845 625.147 415.441 624.858 416.167 624.424C416.892 623.99 417.473 622.977 417.908 621.675C418.344 620.373 418.634 618.058 418.634 614.875L418.779 598.816C416.167 598.672 413.699 598.527 410.942 598.527C399.476 598.527 392.22 598.671 389.172 599.106C388.881 604.748 388.736 609.378 388.736 613.139C388.736 617.19 388.881 619.794 389.027 620.662C389.172 621.675 389.752 622.543 390.623 623.267C391.494 624.135 392.8 624.713 394.397 625.003C395.412 625.147 395.848 625.582 395.848 626.016C395.848 626.594 395.558 626.739 394.832 626.739C394.687 626.739 394.251 626.739 393.961 626.594C392.365 626.45 389.027 626.305 383.947 626.305C378.432 626.305 375.094 626.45 373.788 626.739C373.497 626.739 373.207 626.739 373.062 626.739C372.336 626.739 372.046 626.45 372.046 626.016C372.046 625.437 372.481 625.147 373.497 625.003C375.819 624.713 377.416 624.135 378.432 623.122C379.448 622.109 380.028 618.348 380.464 611.837C380.899 605.327 381.044 597.369 381.044 588.11C381.044 580.587 380.754 575.812 380.028 573.787C379.303 571.761 377.561 570.749 374.803 570.459C374.223 570.459 373.933 570.17 373.933 569.736C373.933 569.157 374.513 568.868 375.819 568.868L393.671 568.579C394.977 568.579 395.703 568.579 395.993 568.723C396.283 568.868 396.428 569.013 396.428 569.447C396.428 569.881 395.993 570.17 395.267 570.315C392.365 570.604 390.478 571.183 389.897 571.906C389.317 572.63 388.881 577.404 388.881 586.229C388.881 587.097 388.881 590.28 389.027 595.923C392.074 596.212 395.558 596.212 399.621 596.212C405.282 596.357 411.522 596.212 418.924 596.067Z" fill="white"/>
<path d="M489.894 569.013C490.765 572.34 491.636 576.97 492.507 582.902C492.362 583.191 492.217 583.336 492.071 583.336C491.926 583.336 491.636 583.191 491.346 582.902C489.314 579.574 487.282 577.115 485.54 575.379C483.799 573.642 481.767 572.485 479.88 571.762C477.993 571.038 474.8 570.604 470.156 570.604C465.802 570.604 462.464 570.894 459.852 571.328C459.561 571.617 459.416 572.196 459.416 572.919C459.416 573.064 459.416 573.498 459.271 574.076C458.981 576.391 458.836 582.757 458.836 593.319C458.836 593.753 458.836 594.331 458.981 595.199C461.158 595.344 462.754 595.344 463.625 595.344C467.399 595.344 470.011 594.765 471.753 593.608C473.494 592.45 474.946 590.136 476.107 586.374C476.252 585.795 476.542 585.361 476.978 585.361C477.558 585.361 477.848 585.795 477.848 586.663L477.703 588.4C477.413 590.714 477.268 593.174 477.268 595.633C477.268 599.684 477.268 603.301 477.558 606.484C477.558 607.497 477.268 607.931 476.687 607.931C476.252 607.931 475.962 607.497 475.816 606.918C475.236 603.446 473.93 600.986 471.898 599.395C469.866 597.804 465.657 597.08 458.981 597.08C458.836 599.25 458.836 602.723 458.836 607.497C458.836 613.718 459.126 617.624 459.561 619.36C459.997 621.097 461.013 622.399 462.754 623.412C464.496 624.424 467.254 624.858 471.317 624.858C482.783 624.858 490.33 620.952 493.668 612.995C494.103 611.982 494.539 611.548 494.974 611.548C495.409 611.548 495.7 611.837 495.7 612.561C495.7 612.995 495.7 613.284 495.41 613.718C495.264 614.297 494.829 616.322 494.103 619.939C493.958 620.663 493.378 622.977 492.362 626.884H473.785C471.172 626.884 467.254 626.739 462.029 626.594C456.804 626.305 452.305 626.305 448.241 626.16C444.177 626.16 442.145 626.016 442 625.871C441.855 625.726 441.71 625.582 441.71 625.437C441.71 624.858 442.145 624.569 443.161 624.569C446.499 624.569 448.676 623.701 449.692 621.965C450.708 620.229 451.289 616.033 451.289 609.233V600.118L451.434 591.582C451.434 589.846 451.289 586.663 451.144 581.889C450.999 577.115 450.708 574.366 450.563 573.787C450.418 573.208 449.983 572.485 449.112 571.762C448.241 571.038 446.644 570.46 444.177 569.736C443.451 569.591 443.016 569.157 443.016 568.723C443.016 568.145 443.597 568 444.613 568L453.611 568.434C456.804 568.579 464.641 568.723 477.268 568.723C485.54 568.868 489.749 569.013 489.894 569.013Z" fill="white"/>
<path d="M118.642 769.536C115.594 769.681 113.852 769.681 113.417 769.681C111.095 769.681 107.031 769.536 101.08 769.391C95.13 769.102 82.6484 769.102 63.781 769.102H40.2693C39.3985 769.102 36.2055 769.247 30.8356 769.536C25.4656 769.825 22.1275 769.97 20.9664 769.97C16.3221 769.97 14 769.391 14 768.089C14 767.076 14.8708 766.642 16.7576 766.498C22.7081 766.064 26.9169 764.906 29.2391 762.736C31.5612 760.566 33.1577 757.383 34.0285 753.332C34.8993 749.281 35.3347 738.141 35.3347 720.201L35.4798 687.214C35.4798 676.508 35.0444 669.13 34.0285 664.789C33.0126 660.449 31.1258 657.266 28.078 655.096C25.0302 652.926 21.6921 651.624 17.9186 651.334C15.8867 651.19 15.0159 650.466 15.0159 649.309C15.0159 648.151 15.8867 647.573 17.6284 647.573C18.0638 647.573 18.9346 647.573 19.9505 647.717C29.6745 648.296 41.1401 648.586 54.3473 648.586L70.6023 648.296C72.1988 648.296 73.0696 648.875 73.0696 650.177C73.0696 651.334 72.1988 651.913 70.312 651.913C65.958 651.913 62.3296 652.781 59.427 654.517C56.5243 656.253 54.4924 658.279 53.6216 660.449C52.6057 662.619 52.1703 667.104 52.1703 673.615L51.4446 717.163L51.5897 741.468C51.5897 748.992 51.88 753.911 52.6057 756.226C53.3313 758.54 54.6376 760.566 56.6694 762.302C58.7013 764.183 62.3297 765.051 67.6996 765.051C68.135 765.051 73.6501 764.906 84.2449 764.472C92.6627 763.315 100.21 759.119 107.031 752.175C113.707 745.085 118.206 738.72 120.383 733.222C121.109 731.63 121.835 730.762 122.851 730.762C123.867 730.762 124.447 731.486 124.447 732.932C124.447 734.669 123.576 740.745 121.835 751.451C120.238 762.013 119.077 768.089 118.642 769.536Z" fill="white"/>
<path d="M187.145 646.271H191.354C198.175 660.304 207.754 684.321 219.8 718.32C227.638 740.166 233.008 753.476 235.765 758.395C238.668 763.315 243.312 766.063 249.698 766.642C251.73 766.787 252.746 767.51 252.746 768.668C252.746 769.536 252.165 769.97 251.149 769.97L249.843 769.825C244.183 769.391 236.926 769.102 228.218 769.102C214.721 769.102 206.158 769.391 202.384 769.825C200.498 769.825 199.482 769.246 199.482 768.089C199.482 767.366 200.207 766.787 201.659 766.642C206.884 766.208 210.512 765.195 212.544 764.038C214.576 762.736 215.592 760.71 215.592 757.961C215.592 755.357 213.705 748.702 209.931 738.141L204.416 722.371C201.223 722.371 186.855 722.515 161.457 722.95C155.071 740.021 151.878 750.728 151.878 755.068C151.878 758.83 153.474 761.578 156.667 763.459C159.86 765.34 162.908 766.353 166.101 766.497C168.423 766.642 169.584 767.365 169.584 768.523C169.584 768.957 169.149 769.391 168.423 769.825C158.554 769.391 152.603 769.102 150.572 769.102C140.267 769.102 133.301 769.246 129.672 769.536C127.64 769.536 126.77 768.957 126.77 767.8C126.77 766.787 127.64 766.208 129.382 765.919C136.494 765.051 141.863 760.276 145.637 751.596C149.41 742.915 155.216 727.435 163.198 704.865C170.455 684.61 178.437 664.934 187.145 646.271ZM183.372 666.381C177.566 678.099 170.89 695.027 163.343 717.162C169.729 716.873 174.228 716.728 176.986 716.728L202.965 717.162C200.643 710.797 197.45 702.261 193.386 691.699C188.306 679.112 184.968 670.721 183.372 666.381Z" fill="white"/>
<path d="M299.913 648.73L318.926 648.296C343.018 648.296 361.16 654.083 373.496 665.802C385.833 677.521 391.928 692.133 391.928 709.929C391.928 722.516 389.026 733.511 383.075 742.77C377.125 752.03 369.723 759.119 360.87 763.749C352.017 768.378 340.116 770.838 325.457 770.838C322.119 770.838 317.91 770.693 312.83 770.259C303.687 769.536 298.607 769.102 297.446 769.102C277.272 769.102 265.371 769.391 261.743 769.825C259.711 769.825 258.695 769.391 258.695 768.234C258.695 767.51 259.131 767.076 259.856 766.787C260.582 766.498 262.904 766.208 266.678 765.774C271.612 765.051 275.095 763.17 277.127 759.842C279.159 756.515 280.32 746.387 280.901 729.46L282.352 680.704C282.352 675.061 281.917 669.564 281.191 664.355C280.465 659.147 279.159 655.675 277.563 654.228C275.966 652.781 273.354 651.624 269.726 651.19C267.113 650.756 265.807 650.177 265.807 649.019C265.807 647.717 266.533 647.139 267.694 647.139C269 647.139 272.773 647.428 279.014 647.862C285.4 648.441 292.366 648.73 299.913 648.73ZM296.72 737.707C296.72 745.809 297.301 751.596 298.317 755.068C299.333 758.54 301.655 761.434 305.283 763.604C308.912 765.774 314.572 766.932 322.264 766.932C333.439 766.932 342.583 764.327 349.549 758.974C356.516 753.621 361.886 746.677 365.804 737.851C369.723 729.026 371.61 719.767 371.61 709.929C371.61 695.316 367.11 682.151 358.257 670.287C349.404 658.424 335.471 652.492 316.604 652.492C308.186 652.492 303.397 652.781 301.945 653.36C300.494 653.938 299.913 655.53 299.913 658.279C299.913 660.738 299.768 664.934 299.188 671.01C298.607 679.98 298.172 686.925 298.027 691.989L297.156 717.307C296.866 729.171 296.72 735.971 296.72 737.707Z" fill="white"/>
<path d="M452.305 646.271H456.514C463.336 660.304 472.915 684.321 484.961 718.32C492.798 740.166 498.168 753.476 500.925 758.395C503.828 763.315 508.472 766.063 514.858 766.642C516.89 766.787 517.906 767.51 517.906 768.668C517.906 769.536 517.325 769.97 516.31 769.97L515.003 769.825C509.343 769.391 502.086 769.102 493.378 769.102C479.881 769.102 471.318 769.391 467.545 769.825C465.658 769.825 464.642 769.246 464.642 768.089C464.642 767.366 465.368 766.787 466.819 766.642C472.044 766.208 475.672 765.195 477.704 764.038C479.736 762.736 480.752 760.71 480.752 757.961C480.752 755.357 478.865 748.702 475.092 738.141L469.576 722.371C466.383 722.371 452.015 722.515 426.617 722.95C420.231 740.021 417.038 750.728 417.038 755.068C417.038 758.83 418.634 761.578 421.827 763.459C425.02 765.34 428.068 766.353 431.261 766.497C433.583 766.642 434.744 767.365 434.744 768.523C434.744 768.957 434.309 769.391 433.583 769.825C423.714 769.391 417.764 769.102 415.732 769.102C405.427 769.102 398.461 769.246 394.832 769.536C392.8 769.536 391.93 768.957 391.93 767.8C391.93 766.787 392.8 766.208 394.542 765.919C401.654 765.051 407.024 760.276 410.797 751.596C414.571 742.915 420.376 727.435 428.358 704.865C435.76 684.61 443.743 664.934 452.305 646.271ZM448.677 666.381C442.872 678.099 436.196 695.027 428.649 717.162C435.034 716.873 439.534 716.728 442.291 716.728L468.27 717.162C465.948 710.797 462.755 702.261 458.691 691.699C453.612 679.112 450.274 670.721 448.677 666.381Z" fill="white"/>
<path d="M562.171 707.759C568.122 703.708 572.911 699.946 576.249 696.329C579.732 692.712 585.102 686.925 592.504 679.112C599.906 671.3 604.26 665.947 605.712 663.343C607.163 660.738 607.889 658.858 607.889 657.7C607.889 656.253 607.018 654.951 605.421 653.939C603.825 652.781 601.793 652.058 599.616 651.624C597.149 651.19 595.988 650.611 595.988 649.454C595.988 648.296 597.003 647.862 599.035 647.862C599.471 647.862 600.196 647.862 601.067 647.717C603.389 647.573 610.211 647.573 621.531 647.573C629.368 647.573 634.738 647.573 637.931 647.862C641.124 648.151 642.576 648.586 642.576 649.598C642.576 650.611 641.705 651.334 639.963 651.479C634.303 652.202 629.223 653.794 625.014 656.109C620.805 658.424 614.274 663.777 605.421 672.313C596.568 680.849 588.876 689.095 582.49 697.052C589.602 697.052 595.552 698.065 600.487 700.091C605.276 702.116 609.34 705.588 612.533 710.363C615.726 715.282 618.483 723.528 620.805 735.247C624.869 754.779 632.126 765.051 642.721 765.919C645.043 766.064 646.204 766.787 646.204 767.8C646.204 768.668 645.623 769.102 644.607 769.102L636.19 768.957C623.563 768.957 616.451 769.102 614.565 769.391C611.517 765.34 609.63 761.434 608.759 757.672C607.888 753.766 606.582 746.966 605.131 737.273C603.825 728.881 601.503 720.924 598.455 713.835C595.407 706.601 590.472 703.129 583.941 703.129C579.587 703.129 575.088 704.576 570.444 707.469C565.8 710.363 563.042 712.388 562.316 713.835C561.591 715.282 561.155 723.384 561.155 738.141C561.155 748.558 561.446 755.068 562.171 757.528C562.897 759.987 564.203 761.868 566.38 763.315C568.557 764.761 571.46 765.63 575.233 765.919C577.41 766.208 578.571 766.787 578.571 767.944C578.571 768.957 577.846 769.536 576.249 769.536H575.088C573.347 769.391 567.106 769.391 556.221 769.391C543.159 769.391 535.757 769.536 534.015 769.825C533.144 769.97 532.564 769.97 532.129 769.97C530.677 769.97 529.952 769.391 529.952 768.234C529.952 767.221 530.822 766.642 532.564 766.353C535.902 765.919 538.224 765.051 539.966 763.604C541.562 762.157 542.578 760.566 543.159 758.83C543.739 757.094 544.175 751.017 545.045 740.6C545.771 730.328 546.207 721.648 546.207 714.848C546.207 705.733 546.061 698.065 545.916 691.699C545.771 685.334 545.336 678.534 544.755 671.011C544.175 663.487 543.594 659.002 542.868 657.556C542.143 656.109 541.272 654.951 539.966 654.083C538.805 653.215 535.902 652.637 531.258 652.058C529.661 651.913 528.936 651.334 528.936 650.322C528.936 649.02 530.387 648.296 533.144 648.296L540.691 648.151L573.492 647.717C575.233 647.717 575.959 648.151 575.959 649.309C575.959 649.888 575.669 650.322 575.088 650.611C574.508 650.9 572.911 651.19 570.008 651.624C567.106 652.058 565.364 652.347 564.493 652.636C563.623 652.926 563.042 653.794 562.316 655.096C561.591 656.398 561.155 658.424 561.155 661.317C561.155 668.117 561.446 683.742 562.171 707.759Z" fill="white"/>
<path d="M751.426 706.023L752.297 680.415C752.297 669.13 751.136 661.751 748.959 658.279C746.782 654.807 742.864 652.926 737.639 652.926C734.591 652.926 732.994 652.203 732.994 651.045C732.994 649.888 733.865 649.309 735.752 649.309L762.602 650.177L785.388 649.743C787.129 649.743 788 650.322 788 651.479C788 652.492 787.42 652.926 786.259 652.926C781.614 652.926 777.986 653.649 775.374 654.952C772.761 656.254 771.02 658.568 770.294 661.896C769.568 665.224 768.843 674.483 768.262 689.674C767.681 705.01 767.536 716.15 767.536 723.095L767.246 745.809C767.246 752.898 767.972 757.383 769.278 759.553C770.584 761.723 772.616 763.315 775.374 764.472C778.131 765.63 780.744 766.353 783.646 766.787C785.678 767.077 786.549 767.655 786.549 768.523C786.549 769.536 785.678 769.97 784.082 769.97L755.635 769.247L737.058 769.97C734.881 769.97 733.865 769.391 733.865 768.234C733.865 767.366 734.591 766.787 736.187 766.787C741.122 766.498 744.315 765.774 745.911 764.906C747.363 763.894 748.669 762.013 749.54 759.264C750.411 756.515 750.991 751.885 751.136 745.23L751.572 711.81C746.347 711.376 740.977 711.231 735.462 711.231C711.66 711.231 696.566 711.665 690.18 712.533C689.744 724.252 689.454 733.945 689.454 741.613C689.454 750.149 689.599 755.358 690.035 757.383C690.47 759.409 691.486 761.145 693.518 762.881C695.405 764.617 698.162 765.774 701.5 766.353C703.532 766.787 704.693 767.511 704.693 768.379C704.693 769.536 703.968 769.97 702.661 769.97C702.226 769.97 701.645 769.97 700.775 769.825C697.437 769.391 690.615 769.247 680.02 769.247C668.7 769.247 661.588 769.536 659.121 770.115C658.541 770.115 657.96 770.259 657.525 770.259C656.073 770.259 655.348 769.825 655.348 768.813C655.348 767.8 656.364 767.077 658.25 766.787C663.04 766.208 666.378 764.906 668.41 762.881C670.442 760.855 671.893 753.043 672.619 739.443C673.344 725.843 673.78 709.495 673.78 690.108C673.78 674.338 673.054 664.5 671.603 660.305C670.151 656.109 666.523 653.939 660.863 653.505C659.557 653.36 658.976 652.926 658.976 652.058C658.976 650.756 660.282 650.177 662.895 650.177L700.049 649.598C702.661 649.598 704.258 649.598 704.838 649.888C705.419 650.033 705.564 650.467 705.564 651.335C705.564 652.347 704.838 652.781 703.097 653.071C697.001 653.649 693.228 654.807 691.921 656.398C690.615 657.99 689.89 667.973 689.89 686.347C689.89 688.227 690.035 694.882 690.18 706.312C696.421 706.746 703.822 707.035 712.24 707.035C722.98 706.746 736.187 706.457 751.426 706.023Z" fill="white"/>
<path d="M235.766 795.288H237.943C241.426 802.522 246.361 814.675 252.456 832.036C256.375 843.176 259.132 849.976 260.584 852.436C262.035 854.895 264.502 856.342 267.695 856.631C268.711 856.776 269.292 857.065 269.292 857.644C269.292 858.078 269.002 858.367 268.566 858.367H267.841C264.938 858.078 261.309 857.933 256.81 857.933C249.989 857.933 245.49 858.078 243.603 858.223C242.587 858.223 242.152 857.933 242.152 857.355C242.152 856.921 242.587 856.631 243.313 856.631C245.925 856.342 247.812 855.908 248.828 855.329C249.844 854.606 250.424 853.593 250.424 852.291C250.424 850.989 249.408 847.517 247.522 842.164L244.764 834.062C243.168 834.062 235.766 834.206 222.849 834.351C219.511 843.032 217.914 848.529 217.914 850.7C217.914 852.58 218.785 854.027 220.382 855.04C221.978 855.908 223.575 856.487 225.171 856.631C226.332 856.776 226.913 857.065 226.913 857.644C226.913 857.933 226.768 858.078 226.332 858.367C221.252 858.078 218.35 858.078 217.189 858.078C211.964 858.078 208.336 858.078 206.594 858.223C205.578 858.223 205.143 857.933 205.143 857.355C205.143 856.921 205.578 856.487 206.449 856.342C210.077 855.908 212.835 853.448 214.721 848.963C216.608 844.478 219.656 836.666 223.72 825.092C227.203 814.819 231.412 804.837 235.766 795.288ZM233.879 805.56C230.976 811.492 227.493 820.173 223.575 831.457C226.768 831.313 229.09 831.168 230.541 831.168L243.748 831.457C242.587 828.13 240.991 823.934 238.814 818.436C236.346 812.071 234.75 807.73 233.879 805.56Z" fill="white"/>
<path d="M295.125 858.946H292.368C290.916 854.171 288.594 847.805 285.401 839.559L276.403 816.7C273.646 809.611 271.759 805.126 270.598 803.39C269.437 801.653 268.421 800.496 267.405 799.773C266.389 799.049 264.937 798.76 263.051 798.615C262.325 798.615 261.89 798.326 261.89 797.747C261.89 797.168 262.325 796.879 263.051 796.879H287.723C289.32 796.879 290.046 797.168 290.046 797.602C290.046 798.326 289.465 798.615 288.594 798.615C284.385 798.615 282.354 800.351 282.354 803.968C282.354 804.836 282.499 806.138 282.934 808.019C283.369 809.9 283.95 812.07 284.966 814.819C285.837 817.568 287.869 823.066 290.916 831.457C293.964 839.848 295.996 844.912 296.722 846.793L306.881 818.87C309.784 810.913 311.235 805.994 311.235 803.968C311.235 800.641 309.203 798.905 305.14 798.471C304.269 798.471 303.979 798.036 303.979 797.602C303.979 797.313 304.124 797.024 304.414 796.879C304.704 796.734 305.575 796.734 307.026 796.734H322.846C324.297 796.734 325.168 796.734 325.458 796.879C325.749 797.024 325.894 797.168 325.894 797.602C325.894 798.181 325.313 798.615 324.007 798.76C321.685 799.049 319.943 799.917 318.782 801.364C317.621 802.811 316.46 804.402 315.444 806.283C314.428 808.164 311.525 815.687 306.736 828.853C304.849 833.627 301.076 843.61 295.125 858.946Z" fill="white"/>
<path d="M380.029 797.024C380.9 800.496 381.771 805.415 382.787 811.781C382.642 812.07 382.496 812.215 382.206 812.215C382.061 812.215 381.771 812.07 381.481 811.781C379.304 808.308 377.272 805.704 375.24 803.823C373.208 801.943 371.321 800.641 369.289 799.917C367.257 799.194 363.919 798.76 358.985 798.76C354.34 798.76 350.712 799.049 348.1 799.483C347.809 799.773 347.664 800.351 347.664 801.219C347.664 801.509 347.664 801.798 347.519 802.377C347.229 804.836 347.084 811.636 347.084 822.776C347.084 823.21 347.084 823.934 347.229 824.802C349.551 824.946 351.293 824.946 352.163 824.946C356.082 824.946 358.985 824.368 360.726 823.21C362.468 822.053 364.064 819.449 365.371 815.542C365.516 814.819 365.951 814.53 366.241 814.53C366.822 814.53 367.112 814.964 367.112 815.832L366.967 817.713C366.677 820.172 366.532 822.776 366.532 825.38C366.532 829.721 366.532 833.482 366.822 836.955C366.822 837.967 366.532 838.546 365.951 838.546C365.516 838.546 365.226 838.112 365.08 837.389C364.355 833.772 363.049 831.023 360.872 829.431C358.695 827.84 354.195 826.972 347.084 826.972C346.939 829.287 346.939 832.904 346.939 838.112C346.939 844.767 347.229 848.963 347.664 850.699C348.1 852.435 349.261 853.882 351.002 854.895C352.744 855.907 355.792 856.486 360.146 856.486C372.337 856.486 380.319 852.29 383.803 843.899C384.238 842.886 384.673 842.308 385.109 842.308C385.544 842.308 385.835 842.597 385.835 843.32C385.835 843.754 385.835 844.044 385.544 844.478C385.399 845.057 384.964 847.371 384.238 851.133C384.093 852.001 383.512 854.461 382.496 858.512H362.758C359.856 858.512 355.792 858.367 350.277 858.222C344.762 858.078 339.972 857.788 335.763 857.788C331.554 857.788 329.377 857.644 329.087 857.499C328.797 857.354 328.797 857.209 328.797 856.92C328.797 856.341 329.377 855.907 330.393 855.907C333.877 855.907 336.199 855.039 337.215 853.159C338.231 851.278 338.811 846.793 338.811 839.704V830.01L338.956 821.04C338.956 819.159 338.811 815.832 338.666 810.768C338.521 805.704 338.231 802.811 338.085 802.087C337.94 801.364 337.36 800.641 336.634 799.917C335.908 799.194 334.022 798.47 331.409 797.747C330.538 797.458 330.248 797.168 330.248 796.734C330.248 796.156 330.829 795.866 331.845 795.866L341.424 796.445C344.762 796.59 353.179 796.734 366.532 796.734C375.385 797.024 379.884 797.024 380.029 797.024Z" fill="white"/>
<path d="M406.879 796.734C408.766 799.339 411.959 803.245 416.748 808.598L431.842 825.959L446.355 842.742C446.646 837.099 446.791 829.721 446.791 820.606C446.791 813.806 446.646 809.321 446.355 807.006C446.065 804.692 445.049 802.811 443.162 801.219C441.421 799.628 439.099 798.905 436.341 798.905C435.035 798.905 434.454 798.615 434.454 798.181C434.454 797.892 434.599 797.602 434.89 797.458C435.18 797.313 437.212 797.168 441.276 797.024C445.194 796.879 448.532 796.734 451.29 796.734H457.676H458.692C459.708 796.734 460.143 797.024 460.143 797.602C460.143 798.036 459.708 798.326 458.837 798.471C455.644 798.76 453.322 799.628 452.016 800.93C450.564 802.232 449.838 804.113 449.548 806.572C449.258 809.032 449.113 817.279 449.113 831.168L448.677 856.052C448.677 857.354 448.387 857.933 447.807 857.933C447.661 857.933 447.371 857.933 447.081 857.644C446.791 857.499 445.339 855.907 442.872 852.869C440.405 849.831 437.212 846.214 433.438 842.018C429.665 837.823 426.762 834.351 424.585 831.746C419.941 826.104 416.893 822.632 415.732 821.33C411.233 816.555 408.475 813.372 407.75 812.07C407.169 811.057 406.734 810.623 406.298 810.623C406.008 810.623 405.718 811.202 405.718 812.504L405.863 819.738C405.863 828.997 406.153 836.376 406.589 841.874C407.169 847.371 407.604 850.554 408.185 851.567C408.766 852.58 409.636 853.448 411.088 854.461C412.539 855.473 413.845 855.907 415.442 855.907C417.474 855.907 418.49 856.341 418.49 857.065C418.49 857.644 417.909 857.933 416.748 857.933H394.107C393.091 857.933 392.511 857.644 392.511 857.21C392.511 856.631 393.091 856.197 394.107 856.197C398.026 856.197 400.493 855.329 401.799 853.593C403.105 851.856 403.686 848.24 403.686 842.742L403.25 826.249C403.25 816.555 402.96 810.768 402.525 809.032C401.944 807.296 400.783 805.126 398.896 802.666C397.01 800.207 394.833 798.76 392.511 798.471C391.495 798.326 390.914 798.036 390.914 797.602C390.914 797.024 391.64 796.734 392.946 796.734H406.879Z" fill="white"/>
<path d="M466.964 796.445H490.62C491.927 796.445 492.652 796.735 492.652 797.313C492.652 797.892 492.217 798.182 491.201 798.326C489.024 798.616 487.282 799.194 486.266 800.207C485.251 801.22 484.38 802.956 483.799 805.56C483.219 808.164 482.928 813.517 482.928 821.909C482.928 831.891 483.219 838.836 483.799 842.742C484.38 846.648 486.266 849.687 489.314 851.857C492.362 854.172 496.571 855.184 501.796 855.184C507.311 855.184 511.52 854.172 514.422 852.002C517.325 849.831 519.212 846.793 520.083 842.598C520.954 838.402 521.389 829.432 521.389 815.687C521.389 808.598 520.663 803.969 519.212 801.654C517.761 799.484 515.584 798.326 512.681 798.326C511.52 798.326 510.939 798.037 510.939 797.313C510.939 796.735 511.665 796.301 513.261 796.301H532.129C533 796.301 533.435 796.59 533.435 797.313C533.435 797.747 533.145 798.037 532.419 798.037C529.952 798.326 528.355 799.194 527.194 800.352C526.033 801.509 525.308 803.679 525.017 806.573C524.727 809.466 524.437 814.096 524.437 820.028C524.437 827.406 524.146 833.627 523.566 838.836C522.985 843.9 521.824 847.806 519.938 850.265C518.051 852.725 515.293 854.895 511.665 856.342C508.037 857.933 503.537 858.657 498.167 858.657C492.652 858.657 488.008 857.789 484.235 856.053C480.461 854.316 477.704 852.002 476.397 849.108C475.091 846.214 474.366 841.874 474.366 836.232L474.511 823.211C474.511 811.637 474.075 804.547 473.059 801.943C472.043 799.339 469.866 798.037 466.673 797.892C465.657 797.892 465.077 797.603 465.077 797.169C464.932 796.735 465.657 796.445 466.964 796.445Z" fill="white"/>
<path d="M589.167 797.024C590.038 800.496 591.054 805.415 591.779 811.781C591.634 812.07 591.489 812.215 591.344 812.215C591.054 812.215 590.908 812.07 590.618 811.781C588.441 808.308 586.409 805.704 584.377 803.823C582.346 801.943 580.459 800.641 578.427 799.917C576.395 799.194 573.057 798.76 568.122 798.76C563.478 798.76 559.85 799.049 557.237 799.483C556.947 799.773 556.802 800.351 556.802 801.219C556.802 801.509 556.802 801.798 556.657 802.377C556.367 804.836 556.221 811.636 556.221 822.776C556.221 823.21 556.221 823.934 556.367 824.802C558.834 824.946 560.43 824.946 561.301 824.946C565.22 824.946 568.122 824.368 569.864 823.21C571.606 822.053 573.202 819.449 574.508 815.542C574.799 814.819 575.089 814.53 575.379 814.53C575.96 814.53 576.25 814.964 576.25 815.832L576.105 817.713C575.815 820.172 575.669 822.776 575.669 825.38C575.669 829.721 575.669 833.482 575.96 836.955C575.96 837.967 575.669 838.546 575.089 838.546C574.653 838.546 574.363 838.112 574.218 837.389C573.492 833.772 572.186 831.023 570.009 829.431C567.832 827.84 563.333 826.972 556.221 826.972C556.076 829.287 556.076 832.904 556.076 838.112C556.076 844.767 556.367 848.963 556.802 850.699C557.237 852.435 558.398 853.882 560.14 854.895C561.882 855.907 564.929 856.486 569.283 856.486C581.475 856.486 589.457 852.29 592.94 843.899C593.376 842.886 593.811 842.308 594.247 842.308C594.682 842.308 594.972 842.597 594.972 843.32C594.972 843.754 594.972 844.044 594.682 844.478C594.537 845.057 594.101 847.371 593.376 851.133C593.231 852.001 592.65 854.461 591.634 858.512H571.896C568.993 858.512 564.929 858.367 559.414 858.222C553.899 858.078 549.11 857.788 544.901 857.788C540.692 857.788 538.515 857.644 538.225 857.499C537.935 857.354 537.935 857.209 537.935 856.92C537.935 856.341 538.515 855.907 539.531 855.907C543.014 855.907 545.336 855.039 546.352 853.159C547.513 851.278 547.949 846.793 547.949 839.704V830.01L548.094 821.04C548.094 819.159 547.949 815.832 547.804 810.768C547.659 805.704 547.368 802.811 547.223 802.087C547.078 801.364 546.497 800.641 545.772 799.917C545.046 799.194 543.159 798.47 540.402 797.747C539.531 797.458 539.241 797.168 539.241 796.734C539.241 796.156 539.821 795.866 540.837 795.866L550.416 796.445C553.754 796.59 562.172 796.734 575.524 796.734C584.523 797.024 589.022 797.024 589.167 797.024Z" fill="white"/>
<path d="M235.33 915.805H252.02V919.567H230.686V884.555H235.475L235.33 915.805Z" fill="white"/>
<path d="M282.354 884.409V908.136C282.354 911.898 281.047 914.936 278.58 916.817C276.113 918.842 272.775 919.855 268.856 919.855C264.937 919.855 261.89 918.842 259.422 916.817C256.955 914.791 255.794 911.898 255.794 908.136V884.409H260.583V908.136C260.583 910.74 261.309 912.766 262.906 914.213C264.357 915.66 266.389 916.238 268.856 916.238C271.468 916.238 273.5 915.515 275.242 914.213C276.838 912.766 277.564 910.885 277.564 908.136V884.409H282.354Z" fill="white"/>
<path d="M301.511 898.154L309.639 884.554H315.444L304.269 901.915L315.589 919.421H309.929L301.511 905.532L293.093 919.421H287.288L298.609 901.77L287.433 884.409H293.093L301.511 898.154Z" fill="white"/>
<path d="M346.937 884.409V908.136C346.937 911.898 345.631 914.936 343.164 916.817C340.697 918.842 337.359 919.855 333.44 919.855C329.521 919.855 326.474 918.842 324.006 916.817C321.539 914.791 320.378 911.898 320.378 908.136V884.409H325.167V908.136C325.167 910.74 325.893 912.766 327.49 914.213C328.941 915.66 330.973 916.238 333.44 916.238C336.052 916.238 338.084 915.515 339.826 914.213C341.422 912.766 342.148 910.885 342.148 908.136V884.409H346.937Z" fill="white"/>
<path d="M359.565 904.375V919.421H354.775V884.409H367.547C371.321 884.409 374.368 885.277 376.4 887.013C378.432 888.749 379.448 891.209 379.448 894.392C379.448 896.128 379.013 897.72 377.997 899.022C376.981 900.324 375.675 901.481 373.933 902.204C375.82 902.783 377.271 903.796 378.142 905.243C379.013 906.69 379.448 908.426 379.448 910.451V913.779C379.448 914.936 379.593 915.804 379.884 916.672C380.174 917.54 380.609 918.264 381.19 918.842V919.421H376.255C375.675 918.842 375.239 918.119 375.094 916.962C374.949 915.804 374.804 914.791 374.804 913.634V910.451C374.804 908.57 374.223 906.979 373.207 905.821C372.046 904.664 370.595 904.085 368.708 904.085L359.565 904.375ZM359.565 900.613H366.967C369.724 900.613 371.611 900.179 372.772 899.166C373.933 898.154 374.514 896.562 374.514 894.537C374.514 892.511 373.933 891.064 372.772 889.907C371.611 888.749 369.869 888.315 367.402 888.315H359.42L359.565 900.613Z" fill="white"/>
<path d="M397.01 902.204L406.153 884.409H411.523L399.187 907.124V919.421H394.397V906.834L382.206 884.409H387.576L397.01 902.204Z" fill="white"/>
<path d="M455.353 919.421H450.564V903.941H433.438V919.421H428.794V884.409H433.583V900.179H450.564V884.409H455.353V919.421Z" fill="white"/>
<path d="M490.62 905.098C490.62 909.439 489.314 912.911 486.557 915.805C483.799 918.698 480.461 920 476.252 920C472.189 920 468.85 918.553 466.238 915.805C463.626 913.056 462.319 909.439 462.319 905.098V898.877C462.319 894.537 463.626 891.065 466.238 888.171C468.85 885.278 472.189 883.976 476.252 883.976C480.461 883.976 483.944 885.422 486.557 888.171C489.169 891.065 490.62 894.537 490.62 898.877V905.098ZM485.831 898.877C485.831 895.694 484.96 893.09 483.219 890.92C481.477 888.895 479.155 887.882 476.252 887.882C473.495 887.882 471.318 888.895 469.576 890.92C467.834 892.946 467.109 895.55 467.109 898.877V905.098C467.109 908.281 467.98 911.03 469.576 913.056C471.173 915.081 473.495 916.094 476.252 916.094C479.155 916.094 481.477 915.081 483.219 913.056C484.96 911.03 485.831 908.426 485.831 905.098V898.877Z" fill="white"/>
<path d="M520.808 888.171H509.488V919.421H504.698V888.171H493.378V884.409H520.663L520.808 888.171Z" fill="white"/>
<path d="M546.787 903.217H530.678V915.66H549.255V919.421H526.033V884.409H549.11V888.171H530.823V899.456H546.933L546.787 903.217Z" fill="white"/>
<path d="M559.56 915.805H576.251V919.567H554.916V884.555H559.705L559.56 915.805Z" fill="white"/>
<path d="M170.019 827.985H55.3633V833.772H170.019V827.985Z" fill="white"/>
<path d="M749.83 828.709H635.174V834.496H749.83V828.709Z" fill="white"/>
<path d="M205.577 901.047H90.9209V903.94H205.577V901.047Z" fill="white"/>
<path d="M709.192 901.047H594.536V903.94H709.192V901.047Z" fill="white"/>
<path d="M425.984 400.647H378.081L248.888 556.59H273.565L290.839 543.342C300.275 536.027 312.323 532.163 324.807 532.163H391.726V512.843H410.597V532.163H477.081C490 532.163 502.484 536.441 511.919 544.032L527.597 556.59H560.984L425.984 400.647ZM395.5 407.133H407.113V414.861H395.5V407.133ZM395.5 422.589H407.113V432.94H395.5V422.589ZM394.049 441.91H408.565V461.23H394.049V441.91ZM409.871 497.249H392.452V472.822H409.871V497.249Z" fill="white"/>
<path d="M688.145 315.5C688.145 403.545 650.258 482.621 590.306 536.166C583.193 542.514 575.645 548.586 567.951 554.244L431.645 395.955H374.452L241.194 556.59C233.065 550.932 225.372 544.722 217.968 538.236L217.823 538.098C161.501 488.693 124.049 417.207 118.388 336.752C117.807 329.714 117.662 322.538 117.662 315.362C117.662 153.623 245.404 22.6582 402.903 22.6582C560.403 22.6582 688.145 153.761 688.145 315.5Z" fill="white"/>
<path d="M238.726 313.706L185.162 348.758C182.258 350.69 178.629 347.516 180.371 344.618L190.823 326.954C191.258 326.264 191.403 325.436 191.403 324.746C191.403 322.814 190.097 321.02 188.065 320.33C186.178 319.778 184.145 320.33 182.839 321.71L132.758 375.807L131.162 377.601C127.242 361.04 124.629 343.928 123.758 326.678C123.758 325.574 123.613 324.332 123.613 323.228L182.258 280.585C182.258 280.585 218.549 236.424 233.065 246.084C247.581 255.744 233.065 279.205 233.065 279.205C233.065 279.205 225.807 288.865 228.71 287.485C229 287.347 229.29 287.209 229.581 287.209C233.645 286.243 244.823 286.933 247.581 295.765C250.339 305.425 238.726 313.706 238.726 313.706Z" fill="url(#paint0_linear_278_303)"/>
<path d="M677.112 364.766C676.241 369.32 675.225 374.012 674.209 378.566H598.58L600.177 376.772L553.87 338.96C568.241 327.781 600.176 301.561 594.515 293.005C591.612 288.589 587.838 286.795 584.209 286.243C594.806 279.205 610.628 272.994 616.289 294.385C622.967 320.329 660.999 352.208 677.112 364.766Z" fill="url(#paint1_linear_278_303)"/>
<path d="M553.725 338.96C552.274 340.064 550.967 341.03 549.951 341.858C548.064 343.238 546.903 344.066 546.903 344.066L519.467 317.432L503.209 301.699L501.322 299.905L503.5 298.111L571 239.184L586.241 244.428L592.774 258.504L573.903 287.485C573.903 287.485 578.548 285.553 583.919 286.243C587.548 286.795 591.322 288.589 594.225 293.005C600.032 301.561 568.096 327.782 553.725 338.96Z" fill="url(#paint2_linear_278_303)"/>
<path d="M682.193 312.325C682.193 314.533 682.193 316.603 682.048 318.811C681.612 334.406 679.871 349.724 677.112 364.766C661 352.208 622.967 320.329 616.145 294.385C610.484 272.995 594.661 279.205 584.064 286.243C581.451 288.037 579.129 289.831 577.387 291.211C575.355 292.867 572.451 292.729 570.564 291.073C569.548 290.107 569.113 289.003 569.113 287.761C569.113 286.519 569.693 285.277 570.709 284.311C577.532 278.239 589.871 264.3 582.032 248.016C580 243.876 574.338 242.772 570.709 245.808L505.823 299.767L503.5 301.699L501.758 303.079L499.871 298.663L498.564 295.765L499.581 294.799L574.048 230.904L682.193 312.325Z" fill="#1C1302"/>
<path d="M603.225 378.567H598.58H588.854L568.677 362.144L566.354 360.212L410.016 232.56L402.758 226.764L401.306 227.868L217.968 378.567H205.049L205.339 378.429L208.242 375.669L304.629 296.455L310 292.039L402.758 215.724L495.371 291.349L499.58 294.799L502.048 296.869L503.645 298.111L505.677 299.767L553.725 338.96L603.225 378.567Z" fill="#1C1302"/>
<path d="M682.193 311.222C682.193 311.636 682.193 311.912 682.193 312.326C682.193 314.534 682.193 316.604 682.047 318.812L586.241 244.428L574.193 235.044L502.048 296.869L499.87 298.801L498.419 300.043L492.612 293.833L495.516 291.349L574.048 224.004L682.338 308.185C682.193 309.289 682.193 310.256 682.193 311.222Z" fill="#1C1302"/>
<path d="M300.419 304.046L300.855 304.46C300.855 304.46 292.435 311.36 280.532 321.02L278.645 322.538C269.064 330.266 257.597 339.512 246.274 348.344L245.403 349.034C228.564 362.145 212.742 374.289 205.339 378.705C205.339 378.705 205.194 378.705 205.194 378.843H200.839C202 372.357 223.339 351.381 248.742 333.992C248.887 333.854 249.177 333.716 249.322 333.578C250.193 333.026 251.064 332.474 251.935 331.784C253.968 330.404 255.71 329.162 257.451 327.92C279.371 310.946 268.339 300.734 260.645 289.003C258.758 286.243 256.581 284.311 254.403 283.069C248.597 279.757 241.193 280.171 235.532 283.897L230.452 287.209L223.919 291.487L218.984 294.661C218.258 295.213 217.242 294.247 217.968 293.557C236.548 273.271 231.468 259.885 226.387 253.399C224.21 250.777 220.145 250.501 217.677 252.985C185.597 284.449 143.79 313.844 124.049 327.092C121.871 328.61 119.839 329.852 118.242 330.956C118.242 329.852 118.097 328.61 118.097 327.506C117.952 323.504 117.807 319.502 117.807 315.5C117.807 314.258 117.807 313.016 117.807 311.774L123.613 307.22L225.081 228.282L304.338 296.179L304.774 296.455L306.516 297.835L300.419 304.046Z" fill="#1C1302"/>
<path d="M257.596 327.506C257.451 327.644 257.306 327.644 257.306 327.782C254.548 329.576 251.935 331.508 249.322 333.44C249.177 333.578 248.887 333.716 248.742 333.854C223.919 352.209 203.306 374.289 205.338 378.567C205.338 378.705 205.338 378.567 205.338 378.705C205.338 378.705 205.338 378.705 205.338 378.843H131.306C131.306 378.567 131.161 378.153 131.161 377.877L132.758 376.083L182.838 321.848C184.145 320.468 186.177 319.916 188.064 320.468C190.097 321.158 191.403 322.952 191.403 324.884C191.403 325.574 191.258 326.402 190.822 327.092L180.371 344.757C178.629 347.655 182.258 350.829 185.161 348.897L238.725 313.844C238.725 313.844 250.338 305.564 247.435 295.904C247 294.386 246.274 293.144 245.403 292.04C245.113 291.764 244.822 291.488 244.677 291.212C244.242 290.798 243.661 290.383 243.08 289.969C242.79 289.831 242.5 289.555 242.354 289.417C238.29 287.071 233.209 286.795 230.306 287.209C230.306 287.209 230.306 287.209 230.161 287.209C229.871 287.209 229.725 287.347 229.435 287.347L241.048 279.757C246.709 276.169 254.112 275.617 259.919 278.929C262.096 280.171 264.274 282.103 266.161 284.863C274.58 297.284 286.629 308.186 257.596 327.506Z" fill="url(#paint3_linear_278_303)"/>
<path d="M592.338 378.567H514.532C514.532 378.567 494.645 340.616 481.435 325.712C468.225 310.945 543.564 344.066 543.564 344.066L566.354 360.212L569.112 362.144L592.338 378.567Z" fill="url(#paint4_linear_278_303)"/>
<path d="M576.951 363.386C576.951 363.386 574.047 363.11 569.257 362.144C569.112 362.144 568.967 362.144 568.822 362.006C552.128 358.97 513.225 349.724 481.435 325.712C466.773 314.534 453.564 300.319 444.854 281.965C444.854 281.965 439.193 249.81 401.596 293.695C401.016 294.385 400.435 295.075 399.854 295.765C399.854 295.765 366.467 312.326 376.629 290.245C385.048 272.167 397.241 239.184 401.306 227.868C402.177 225.384 402.758 224.004 402.758 224.004C402.758 224.004 402.758 224.004 402.903 224.142L576.951 363.386Z" fill="#1C1302"/>
<path d="M418.726 315.085C430.193 294.247 414.08 292.453 401.597 293.695C439.193 249.81 444.855 281.965 444.855 281.965C453.564 300.319 466.774 314.671 481.435 325.711C494.79 340.616 514.532 378.566 514.532 378.566H332.5C356.887 366.008 405.806 338.684 418.726 315.085Z" fill="url(#paint5_linear_278_303)"/>
<path d="M366.468 315.086C362.839 332.06 325.242 366.699 311.742 378.567H273.71C286.484 367.665 370.532 295.903 366.468 315.086Z" fill="#643919"/>
<path d="M418.725 315.086C405.806 338.684 356.886 366.009 332.499 378.567H311.741C325.241 366.699 362.983 332.06 366.467 315.086C370.532 295.903 286.483 367.665 273.709 378.567H208.822L402.757 224.004C402.757 224.004 402.757 224.004 402.902 224.142C403.628 224.832 406.967 227.73 410.015 232.56C417.419 244.152 423.37 265.957 389.257 289.969C387.951 290.935 387.661 292.729 388.532 293.971C389.112 294.799 390.128 295.351 391.144 295.351C391.435 295.351 391.58 295.351 391.87 295.351C394.048 294.799 397.677 294.109 401.741 293.833C414.08 292.453 430.193 294.247 418.725 315.086Z" fill="url(#paint6_linear_278_303)"/>
<path d="M152.5 437.218H149.161C146.984 432.94 144.952 428.524 143.064 424.246V423.417H146.258C146.403 423.693 146.403 423.969 146.548 424.246C148.435 428.662 150.468 432.94 152.5 437.218Z" fill="#DDCCBA"/>
<path d="M360.661 400.647L341.354 423.417H146.258C143.064 415.965 140.161 408.375 137.693 400.647H360.661Z" fill="url(#paint7_linear_278_303)"/>
<path d="M329.596 437.218L302.596 468.958H170.645C163.968 458.746 157.871 448.12 152.5 437.218H329.596Z" fill="url(#paint8_linear_278_303)"/>
<path d="M290.985 482.759L240.614 541.962C217.969 525.402 196.92 504.701 180.372 482.759H290.985Z" fill="url(#paint9_linear_278_303)"/>
<path d="M662.741 423.417V427.558C661.289 430.87 659.693 434.044 658.096 437.218H652.87C654.467 434.044 655.918 430.87 657.37 427.558C657.951 426.178 658.531 424.798 659.257 423.417H662.741Z" fill="#DDCCBA"/>
<path d="M636.611 468.958V469.925C633.708 474.341 630.515 478.619 627.321 482.759H625.144C628.337 478.619 631.386 474.203 634.289 469.925C634.434 469.649 634.724 469.373 634.869 468.958H636.611Z" fill="#DDCCBA"/>
<path d="M667.822 400.647C665.354 408.375 662.451 415.965 659.258 423.417H463.145L443.403 400.647H667.822Z" fill="url(#paint10_linear_278_303)"/>
<path d="M653.016 437.218C647.645 448.12 641.548 458.746 634.871 468.958H502.484L475.049 437.218H653.016Z" fill="url(#paint11_linear_278_303)"/>
<path d="M625.145 482.759C609.032 504.425 587.548 525.264 565.484 541.686L565.339 541.548L514.532 482.897L625.145 482.759Z" fill="url(#paint12_linear_278_303)"/>
<path d="M693.66 311.221C693.66 313.153 693.66 315.085 693.66 317.017C693.66 319.088 693.515 321.158 693.515 323.09C692.644 343.928 689.596 364.628 684.515 384.777C683.208 390.159 681.612 395.403 680.015 400.647C674.934 416.655 668.547 432.388 660.854 447.292C640.096 487.589 609.757 523.055 573.176 549.828L565.628 541.686C587.692 525.263 609.176 504.425 625.289 482.759C628.483 478.618 631.531 474.202 634.434 469.924C634.579 469.648 634.87 469.372 635.015 468.958C641.692 458.746 647.789 448.12 653.16 437.218C654.757 434.044 656.208 430.87 657.66 427.558C658.241 426.177 658.821 424.797 659.547 423.417C662.741 415.965 665.644 408.375 668.112 400.647C670.579 393.333 672.612 386.019 674.354 378.567C675.515 374.013 676.386 369.458 677.257 364.766C680.16 349.724 681.902 334.268 682.192 318.812C682.192 316.604 682.337 314.533 682.337 312.325C682.337 311.911 682.337 311.635 682.337 311.221C682.337 310.255 682.337 309.151 682.337 308.185C680.741 153.347 556.047 27.7642 402.903 27.7642C250.193 27.7642 125.645 152.656 123.468 307.081C123.468 307.219 123.468 307.357 123.468 307.495C123.468 308.737 123.468 309.979 123.468 311.221C123.468 315.223 123.613 319.226 123.758 323.228C123.758 324.332 123.903 325.574 123.903 326.678C123.903 326.816 123.903 326.816 123.903 326.954C124.774 344.204 127.387 361.04 131.306 377.601C131.306 377.877 131.452 378.291 131.452 378.567C133.339 386.019 135.371 393.333 137.693 400.647C140.306 408.375 143.064 415.965 146.258 423.417C146.403 423.693 146.403 423.969 146.548 424.245C148.435 428.662 150.468 432.94 152.5 437.218C157.871 448.12 163.968 458.746 170.645 468.958C173.693 473.65 177.032 478.204 180.371 482.759C196.919 504.839 217.968 525.401 240.613 541.962L233.355 550.38C196.629 523.607 166 488.141 145.097 447.706C125.645 410.031 114.468 368.078 112.29 325.436C112.29 325.298 112.29 325.16 112.29 325.022C112.29 324.746 112.29 324.47 112.29 324.194C112.145 321.572 112.145 318.95 112 316.189C112 314.533 112 312.739 112 311.083C112 232.56 142.193 158.729 197.064 103.114C251.935 47.6366 324.951 17 402.757 17C480.564 17 553.58 47.6366 608.596 103.252C663.321 158.867 693.66 232.698 693.66 311.221Z" fill="white"/>
<path d="M425.984 400.647H378.081L248.888 556.59H273.565L290.839 543.342C300.275 536.027 312.323 532.163 324.807 532.163H391.726V512.843H410.597V532.163H477.081C490 532.163 502.484 536.441 511.919 544.032L527.597 556.59H560.984L425.984 400.647ZM395.5 407.133H407.113V414.861H395.5V407.133ZM395.5 422.589H407.113V432.94H395.5V422.589ZM394.049 441.91H408.565V461.23H394.049V441.91ZM409.871 497.249H392.452V472.822H409.871V497.249Z" fill="#1B1108"/>
<path d="M445.743 130.113C449.725 106.79 433.065 84.8155 408.533 81.0304C384.001 77.2453 360.886 93.0835 356.904 116.406C352.923 139.728 369.583 161.703 394.115 165.488C418.647 169.273 441.762 153.435 445.743 130.113Z" fill="#613613"/>
<path d="M425.984 400.647H378.081L248.888 556.59H273.565L290.839 543.342C300.275 536.027 312.323 532.163 324.807 532.163H391.726V512.843H410.597V532.163H477.081C490 532.163 502.484 536.441 511.919 544.032L527.597 556.59H560.984L425.984 400.647ZM395.5 407.133H407.113V414.861H395.5V407.133ZM395.5 422.589H407.113V432.94H395.5V422.589ZM394.049 441.91H408.565V461.23H394.049V441.91ZM409.871 497.249H392.452V472.822H409.871V497.249Z" fill="white"/>
<defs>
<linearGradient id="paint0_linear_278_303" x1="225.109" y1="283.936" x2="134.044" y2="345.373" gradientUnits="userSpaceOnUse">
<stop stop-color="#E8C9AC"/>
<stop offset="0.2604" stop-color="#E9CCB1"/>
<stop offset="0.5801" stop-color="#ECD5C0"/>
<stop offset="0.9297" stop-color="#F0E4D9"/>
<stop offset="1" stop-color="#F1E8DF"/>
</linearGradient>
<linearGradient id="paint1_linear_278_303" x1="629.509" y1="330.158" x2="445.673" y2="357.783" gradientUnits="userSpaceOnUse">
<stop stop-color="#764826"/>
<stop offset="0.3585" stop-color="#774B2A"/>
<stop offset="0.7012" stop-color="#7A5535"/>
<stop offset="1" stop-color="#7F6446"/>
</linearGradient>
<linearGradient id="paint2_linear_278_303" x1="600.573" y1="292.724" x2="466.407" y2="288.865" gradientUnits="userSpaceOnUse">
<stop stop-color="#E8C9AC"/>
<stop offset="0.2604" stop-color="#E9CCB1"/>
<stop offset="0.5801" stop-color="#ECD5C0"/>
<stop offset="0.9297" stop-color="#F0E4D9"/>
<stop offset="1" stop-color="#F1E8DF"/>
</linearGradient>
<linearGradient id="paint3_linear_278_303" x1="286.754" y1="295.036" x2="134.395" y2="385.289" gradientUnits="userSpaceOnUse">
<stop stop-color="#764826"/>
<stop offset="0.3585" stop-color="#774B2A"/>
<stop offset="0.7012" stop-color="#7A5535"/>
<stop offset="1" stop-color="#7F6446"/>
</linearGradient>
<linearGradient id="paint4_linear_278_303" x1="569.222" y1="388.587" x2="494.982" y2="332.808" gradientUnits="userSpaceOnUse">
<stop stop-color="#764826"/>
<stop offset="0.3585" stop-color="#774B2A"/>
<stop offset="0.7012" stop-color="#7A5535"/>
<stop offset="1" stop-color="#7F6446"/>
</linearGradient>
<linearGradient id="paint5_linear_278_303" x1="455.389" y1="335.718" x2="360.677" y2="409.984" gradientUnits="userSpaceOnUse">
<stop stop-color="#764826"/>
<stop offset="0.3585" stop-color="#774B2A"/>
<stop offset="0.7012" stop-color="#7A5535"/>
<stop offset="1" stop-color="#7F6446"/>
</linearGradient>
<linearGradient id="paint6_linear_278_303" x1="328.342" y1="381.295" x2="297.501" y2="236.66" gradientUnits="userSpaceOnUse">
<stop stop-color="#E8C9AC"/>
<stop offset="0.2604" stop-color="#E9CCB1"/>
<stop offset="0.5801" stop-color="#ECD5C0"/>
<stop offset="0.9297" stop-color="#F0E4D9"/>
<stop offset="1" stop-color="#F1E8DF"/>
</linearGradient>
<linearGradient id="paint7_linear_278_303" x1="327.43" y1="442.845" x2="184.001" y2="376.734" gradientUnits="userSpaceOnUse">
<stop stop-color="#764826"/>
<stop offset="0.3585" stop-color="#774B2A"/>
<stop offset="0.7012" stop-color="#7A5535"/>
<stop offset="1" stop-color="#7F6446"/>
</linearGradient>
<linearGradient id="paint8_linear_278_303" x1="279.206" y1="472.977" x2="200.12" y2="413.081" gradientUnits="userSpaceOnUse">
<stop stop-color="#764826"/>
<stop offset="0.3585" stop-color="#774B2A"/>
<stop offset="0.7012" stop-color="#7A5535"/>
<stop offset="1" stop-color="#7F6446"/>
</linearGradient>
<linearGradient id="paint9_linear_278_303" x1="235.649" y1="520.985" x2="235.649" y2="476.431" gradientUnits="userSpaceOnUse">
<stop stop-color="#764826"/>
<stop offset="0.3585" stop-color="#774B2A"/>
<stop offset="0.7012" stop-color="#7A5535"/>
<stop offset="1" stop-color="#7F6446"/>
</linearGradient>
<linearGradient id="paint10_linear_278_303" x1="475.444" y1="447.98" x2="715.423" y2="322.189" gradientUnits="userSpaceOnUse">
<stop stop-color="#764826"/>
<stop offset="0.3585" stop-color="#774B2A"/>
<stop offset="0.7012" stop-color="#7A5535"/>
<stop offset="1" stop-color="#7F6446"/>
</linearGradient>
<linearGradient id="paint11_linear_278_303" x1="544.464" y1="457.704" x2="678.001" y2="392.549" gradientUnits="userSpaceOnUse">
<stop stop-color="#764826"/>
<stop offset="0.3585" stop-color="#774B2A"/>
<stop offset="0.7012" stop-color="#7A5535"/>
<stop offset="1" stop-color="#7F6446"/>
</linearGradient>
<linearGradient id="paint12_linear_278_303" x1="506.359" y1="549.466" x2="603.256" y2="439.389" gradientUnits="userSpaceOnUse">
<stop stop-color="#764826"/>
<stop offset="0.3585" stop-color="#774B2A"/>
<stop offset="0.7012" stop-color="#7A5535"/>
<stop offset="1" stop-color="#7F6446"/>
</linearGradient>
</defs>
</svg>
